<?xml version="1.0" encoding="UTF-8" standalone="no"?>
<!-- Created with Inkscape (http://www.inkscape.org/) -->

<svg
   xmlns:dc="http://purl.org/dc/elements/1.1/"
   xmlns:cc="http://creativecommons.org/ns#"
   xmlns:rdf="http://www.w3.org/1999/02/22-rdf-syntax-ns#"
   xmlns:svg="http://www.w3.org/2000/svg"
   xmlns="http://www.w3.org/2000/svg"
   xmlns:sodipodi="http://sodipodi.sourceforge.net/DTD/sodipodi-0.dtd"
   xmlns:inkscape="http://www.inkscape.org/namespaces/inkscape"
   width="66.961426mm"
   height="121.9724mm"
   viewBox="0 0 66.961426 121.9724"
   version="1.1"
   id="svg1522"
   inkscape:version="0.92.2 5c3e80d, 2017-08-06"
   sodipodi:docname="car_green.svg">
  <defs
     id="defs1516">
    <clipPath
       clipPathUnits="userSpaceOnUse"
       id="clipPath24">
      <path
         d="m 1678.8,1958.76 c -6.13,410.72 -31.39,677.58 -20.93,803.16 6.76,81.06 1.52,286.57 -3.04,482.24 -2.65,113.62 -70.74,300.33 -174.71,346.24 -21.57,9.52 -339.37,75.83 -462.54,75.83 -116.678,0 -400.506,-65.93 -420.584,-74.79 l -2.363,-1.04 c -103.969,-45.91 -172.067,-239.59 -174.711,-353.21 -4.563,-195.68 -9.801,-394.21 -3.043,-475.27 10.465,-125.58 -14.801,-392.44 -20.934,-803.16 -1.906,-128.07 15.735,-590.56 25.375,-928.63 3.383,-118.54 94.696,-215.821 212.77,-226.778 0,0 293.785,-36.422 392.28,-36.422 98.49,0 414.29,36.422 414.29,36.422 118.08,10.957 209.39,108.238 212.77,226.778 9.64,338.07 27.28,800.56 25.37,928.63"
         id="path22"
         inkscape:connector-curvature="0" />
    </clipPath>
    <clipPath
       clipPathUnits="userSpaceOnUse"
       id="clipPath188">
      <path
         d="m 3086.6,3468.26 c -73.61,70.22 -168.13,114.5 -269.2,126.11 -127.86,14.7 -256.98,14.7 -384.84,0 -101.07,-11.61 -195.58,-55.89 -269.2,-126.11 -93.58,-89.26 -145.99,-213.3 -144.76,-342.62 l 2.08,-217.5 32.02,-336.17 -20.01,-568.29 -10.89,-1153.43 c -0.68,-72.25 41.96,-137.898 108.24,-166.668 67.91,-29.473 140.68,-46.133 214.65,-49.152 l 236.1,-9.641 c 29.44,-1.199 58.94,-1.199 88.38,0 l 236.1,9.641 c 73.97,3.019 146.74,19.679 214.65,49.152 66.29,28.77 108.92,94.418 108.24,166.668 l -10.89,1153.43 -20,568.29 32.02,336.17 2.07,217.5 c 1.23,129.32 -51.18,253.36 -144.76,342.62"
         id="path186"
         inkscape:connector-curvature="0" />
    </clipPath>
    <clipPath
       clipPathUnits="userSpaceOnUse"
       id="clipPath286">
      <path
         d="m 4700.83,3065.95 c -7.67,210.74 -26.83,352.51 -65.15,455.96 -38.31,103.46 -126.44,99.63 -191.58,111.12 -15.02,2.65 -40.65,8.16 -71.18,15.06 -166.23,37.57 -338.75,38.26 -505.07,1.08 -33.66,-7.53 -61.65,-13.53 -76.44,-16.14 -65.14,-11.49 -153.27,-7.66 -191.59,-111.12 -38.32,-103.45 -57.48,-245.22 -65.13,-455.96 -7.67,-210.75 -7.67,-1421.55 -3.84,-1586.31 3.84,-164.77 80.47,-624.558 111.12,-651.378 30.66,-26.821 88.13,-42.153 88.13,-42.153 h 357.66 59.99 357.66 c 0,0 57.47,15.332 88.13,42.153 30.65,26.82 107.29,486.608 111.12,651.378 3.83,164.76 3.83,1375.56 -3.83,1586.31"
         id="path284"
         inkscape:connector-curvature="0" />
    </clipPath>
  </defs>
  <sodipodi:namedview
     id="base"
     pagecolor="#ffffff"
     bordercolor="#666666"
     borderopacity="1.0"
     inkscape:pageopacity="0.0"
     inkscape:pageshadow="2"
     inkscape:zoom="0.35"
     inkscape:cx="678.51985"
     inkscape:cy="158.1433"
     inkscape:document-units="mm"
     inkscape:current-layer="layer1"
     showgrid="false"
     inkscape:window-width="1920"
     inkscape:window-height="1029"
     inkscape:window-x="0"
     inkscape:window-y="27"
     inkscape:window-maximized="1"
     fit-margin-top="10"
     fit-margin-bottom="10"
     fit-margin-left="10"
     fit-margin-right="10" />
  <metadata
     id="metadata1519">
    <rdf:RDF>
      <cc:Work
         rdf:about="">
        <dc:format>image/svg+xml</dc:format>
        <dc:type
           rdf:resource="http://purl.org/dc/dcmitype/StillImage" />
        <dc:title></dc:title>
      </cc:Work>
    </rdf:RDF>
  </metadata>
  <g
     inkscape:label="Calque 1"
     inkscape:groupmode="layer"
     id="layer1"
     transform="translate(205.6054,-68.703015)">
    <g
       transform="matrix(0.03527778,0,0,-0.03527778,-317.38465,208.4076)"
       id="g1430">
      <g
         id="g280">
        <g
           clip-path="url(#clipPath286)"
           id="g282">
          <path
             inkscape:connector-curvature="0"
             id="path288"
             style="fill:#50be9b;fill-opacity:1;fill-rule:nonzero;stroke:none"
             d="m 4700.83,3065.95 c -7.67,210.74 -26.83,352.51 -65.15,455.96 -38.31,103.46 -126.44,99.63 -191.58,111.12 -15.02,2.65 -40.65,8.16 -71.18,15.06 -166.23,37.57 -338.75,38.26 -505.07,1.08 -33.66,-7.53 -61.65,-13.53 -76.44,-16.14 -65.14,-11.49 -153.27,-7.66 -191.59,-111.12 -38.32,-103.45 -57.48,-245.22 -65.13,-455.96 -7.67,-210.75 -7.67,-1421.55 -3.84,-1586.31 3.84,-164.77 80.47,-624.558 111.12,-651.378 30.66,-26.821 88.13,-42.153 88.13,-42.153 h 357.66 59.99 357.66 c 0,0 57.47,15.332 88.13,42.153 30.65,26.82 107.29,486.608 111.12,651.378 3.83,164.76 3.83,1375.56 -3.83,1586.31" />
          <path
             inkscape:connector-curvature="0"
             id="path290"
             style="fill:#4aaf8f;fill-opacity:1;fill-rule:nonzero;stroke:none"
             d="m 4446.05,786.109 h -127.23 l 23.99,109.93 c 22.81,4.672 43.46,10.18 61.2,16.52 46.71,16.691 69.5,56.941 107.86,88.381 28.43,141.38 63.85,372.92 66.37,481.64 0.68,29.13 1.23,88.62 1.63,168.29 16.82,-10.94 29,-17.96 29,-17.96 14.06,118.13 13.67,537.74 12.47,752.54 l 20.95,6.53 1.38,-20.64 63.18,-2.88 c 0.22,-96.61 0.32,-194.88 0.32,-289.39 0,-0.17 0,-0.33 0,-0.5 0,-0.16 0,-0.33 0,-0.5 0,-0.16 0,-0.33 0,-0.49 0,-0.17 0,-0.34 0,-0.5 0,-281.65 -0.93,-529.22 -2.51,-597.44 -2.88,-123.7 -46.79,-413.68 -81.47,-561.902 l -6.77,-14 c -12.72,-26.277 -31.63,-48.918 -54.95,-66.047 -0.05,0 -0.1,-0.011 -0.15,-0.019 -7.09,-5.211 -14.54,-9.953 -22.39,-14.082 v 0 l -38.69,-20.36 -54.19,-17.121 m 175.01,1643.601 c -0.36,52.28 -0.7,84.48 -0.7,84.48 l -40.24,-67.9 c -0.07,23.74 -0.15,47.26 -0.24,70.51 l 28.99,46.24 c 0,0 -7.42,17.25 -29.35,41.04 -1,214 -2.66,391.51 -5.06,457.27 -7.3,200.79 -24.99,329.29 -57.35,416.65 -5.9,15.92 -6.66,17.97 -61.79,25.52 -5.12,0.7 -10.19,1.4 -15.17,2.12 v 0.01 c -6.13,0.9 -12.15,1.83 -17.99,2.86 v 0 0 c -14.59,2.57 -36.93,7.24 -67.89,14.18 v 0 c -3,0.66 -6.07,1.36 -9.23,2.07 -54.43,12.3 -109.83,20.19 -165.38,23.57 -1.22,0.27 -1.86,0.41 -1.86,0.41 l -2.69,126.48 c 66.39,-3.33 132.6,-12.39 197.81,-27.13 30.53,-6.9 56.16,-12.41 71.18,-15.06 65.14,-11.49 153.27,-7.66 191.58,-111.12 38.32,-103.45 57.48,-245.22 65.15,-455.96 3.14,-86.36 4.99,-340.69 5.82,-622.13 l -36.92,9.06 -7.42,-0.61 -41.25,-22.56 m -31.39,1067.3 v 0 0 0 0 c 0,0 -0.58,4.03 -2.87,10.23 -4.94,13.8 -18.28,38.51 -51.51,51.38 -18.73,7.24 -47.93,13.45 -76.55,18.28 -22.65,3.79 -44.94,6.78 -61.49,8.85 -15.98,1.95 -26.45,2.99 -26.45,2.99 v 0 0 l 13.57,-27.25 c 5.41,-10.91 15.29,-18.84 27.12,-21.6 l 178.18,-42.88" />
          <path
             inkscape:connector-curvature="0"
             id="path292"
             style="fill:#4aaf8f;fill-opacity:1;fill-rule:nonzero;stroke:none"
             d="m 3920.08,786.109 h -117.92 l -54.19,17.121 -38.69,20.36 v 0 c -7.85,4.129 -15.3,8.871 -22.39,14.082 -0.05,0.008 -0.11,0.019 -0.16,0.027 -23.31,17.133 -42.23,39.762 -54.94,66.039 l -30.03,62.063 c -32.44,156.119 -68.31,402.419 -70.91,513.839 -1.58,68.02 -2.51,314.33 -2.51,594.95 0,0.16 0,0.33 0,0.49 0,0.17 0,0.34 0,0.5 -0.01,95.58 0.1,195.09 0.32,292.9 l 62.88,2.86 1.38,20.64 16.42,-5.11 c -1.2,-214.37 -1.62,-635.56 12.47,-753.96 0,0 14.55,8.39 33.81,21.12 0.41,-81.23 0.96,-141.92 1.65,-171.45 2.52,-108.76 37.95,-340.33 66.38,-481.7 38.34,-31.419 61.12,-71.638 107.79,-88.321 19.72,-7.047 43.04,-13.067 68.92,-18.059 l 19.72,-108.391 m -310.45,1646.071 -36.73,20.09 -7.42,0.61 -36.62,-8.98 c 0.83,281.43 2.69,535.69 5.83,622.05 7.65,210.74 26.81,352.51 65.13,455.96 38.32,103.46 126.45,99.63 191.59,111.12 14.79,2.61 42.78,8.61 76.44,16.14 74.94,16.75 151.1,25.82 227.41,27.28 l -2.69,-126.53 c -66.4,-1.62 -132.6,-9.72 -197.12,-24.15 -19.7,-4.4 -36.23,-8.01 -49.8,-10.86 -3.7,-0.78 -7.19,-1.5 -10.45,-2.17 v 0 c -8.84,-1.81 -16.08,-3.21 -21.82,-4.22 -10.62,-1.88 -21.75,-3.44 -33.18,-5 -55.15,-7.55 -55.91,-9.6 -61.8,-25.52 -32.36,-87.4 -50.06,-215.89 -57.35,-416.65 -2.34,-64.43 -3.98,-236.41 -4.99,-444.9 -31.44,-29.95 -41.51,-53.41 -41.51,-53.41 l 41.02,-65.44 c -0.07,-19.66 -0.14,-39.47 -0.2,-59.45 l -45.06,76.04 c 0,0 -0.33,-31.17 -0.68,-82.01 m 253.93,1156.56 c 0,0 -10.45,-1.04 -26.43,-2.99 -16.55,-2.07 -38.85,-5.06 -61.5,-8.85 -28.62,-4.83 -57.82,-11.04 -76.56,-18.28 -33.21,-12.87 -46.55,-37.58 -51.49,-51.38 -2.3,-6.2 -2.87,-10.23 -2.87,-10.23 v 0 0 l 178.17,42.88 c 11.84,2.76 21.72,10.69 27.13,21.6 l 13.55,27.25 v 0" />
          <path
             inkscape:connector-curvature="0"
             id="path294"
             style="fill:#5fc8a6;fill-opacity:1;fill-rule:nonzero;stroke:none"
             d="m 3831.44,912.559 c -46.67,16.683 -69.45,56.902 -107.79,88.321 -28.43,141.37 -63.86,372.94 -66.38,481.7 -3.97,170.53 -3.41,1381.06 3.78,1578.77 7.29,200.76 24.99,329.25 57.35,416.65 5.89,15.92 6.65,17.97 61.8,25.52 11.43,1.56 22.56,3.12 33.18,5 15.64,2.76 42.47,8.4 82.07,17.25 72.57,16.23 147.25,24.45 221.97,24.45 76.28,0 152.86,-8.56 227.62,-25.46 35.88,-8.11 61.1,-13.43 77.12,-16.25 10.58,-1.87 21.73,-3.43 33.16,-4.99 55.13,-7.55 55.89,-9.6 61.79,-25.52 32.36,-87.36 50.05,-215.86 57.35,-416.65 7.21,-197.96 7.76,-1408.39 3.78,-1578.77 -2.52,-108.72 -37.94,-340.26 -66.37,-481.64 -38.36,-31.44 -61.15,-71.69 -107.86,-88.381 -134.79,-48.18 -437.78,-48.18 -572.57,0" />
          <path
             inkscape:connector-curvature="0"
             id="path296"
             style="fill:#9bdcc5;fill-opacity:1;fill-rule:nonzero;stroke:none"
             d="m 4429.23,2698.22 c -69.09,25.43 -163.2,44.23 -290.39,44.23 -8.9,0 -17.9,-0.09 -27.13,-0.28 -6.1,0.13 -12.12,0.21 -18.08,0.25 l 48.51,799.88 1.69,7.55 c 64.61,-1.67 129.24,-9.51 192.64,-23.28 l 92.76,-828.35" />
          <path
             inkscape:connector-curvature="0"
             id="path298"
             style="fill:#92d9bf;fill-opacity:1;fill-rule:nonzero;stroke:none"
             d="m 4112.67,3550.21 c 0.05,0 0.1,0 0.14,0 -0.04,0 -0.1,0 -0.14,0 m 0.64,0 c 0.11,0 0.22,0 0.33,0 -0.11,0 -0.22,0 -0.33,0 m 0.73,0 c 0.2,0 0.39,0.01 0.6,0.01 -0.2,0 -0.4,-0.01 -0.6,-0.01 m 0.95,0.01 c 0.19,0 0.38,0 0.57,0 -0.19,0 -0.38,0 -0.57,0 m 0.84,0 c 0.19,0 0.38,0 0.56,0 -0.18,0 -0.37,0 -0.56,0 m 0.8,0 c 0.26,0 0.53,0 0.79,0 -0.26,0 -0.53,0 -0.79,0" />
          <path
             inkscape:connector-curvature="0"
             id="path300"
             style="fill:#9bdcc5;fill-opacity:1;fill-rule:nonzero;stroke:none"
             d="m 3837.61,2712.29 110.69,823.79 c 54.19,9.12 109.26,13.87 164.37,14.13 0.04,0 0.1,0 0.14,0 0.17,0 0.34,0 0.5,0 0.11,0 0.22,0 0.33,0 0.13,0 0.26,0 0.4,0 0.2,0 0.4,0.01 0.6,0.01 0.11,0 0.23,0 0.35,0 0.19,0 0.38,0 0.57,0 0.09,0 0.18,0 0.27,0 0.19,0 0.38,0 0.56,0 0.08,0 0.16,0 0.24,0 0.26,0 0.53,0 0.79,0 v 0 c 8.39,0 16.79,-0.15 25.18,-0.36 l -0.46,-7.56 -48.51,-799.88 c -3.03,0.02 -6.06,0.03 -9.06,0.03 -102.33,0 -183.26,-12.17 -246.96,-30.16" />
          <path
             inkscape:connector-curvature="0"
             id="path302"
             style="fill:#92d9bf;fill-opacity:1;fill-rule:nonzero;stroke:none"
             d="m 4121.88,786.109 h -1.76 c -6.35,24.852 -14.42,56.11 -23.43,90.473 7.01,-0.102 14.02,-0.152 21.03,-0.152 4.36,0 8.7,0.019 13.06,0.058 l -8.9,-90.379" />
          <path
             inkscape:connector-curvature="0"
             id="path304"
             style="fill:#8dd3b7;fill-opacity:1;fill-rule:nonzero;stroke:none"
             d="M 4120.12,786.109 H 3920.08 L 3900.36,894.5 c 56.87,-10.949 126.05,-16.93 196.33,-17.918 9.01,-34.363 17.08,-65.621 23.43,-90.473" />
          <path
             inkscape:connector-curvature="0"
             id="path306"
             style="fill:#9bdcc5;fill-opacity:1;fill-rule:nonzero;stroke:none"
             d="m 4117.72,876.43 c -7.01,0 -14.02,0.05 -21.03,0.152 -70.28,0.988 -139.46,6.969 -196.33,17.918 l -62.41,343.16 c 80.08,-23.33 198.81,-27.09 267.09,-27.09 2.58,0 5.07,0.01 7.5,0.02 2.42,-0.01 4.93,-0.02 7.5,-0.02 12.95,0 27.72,0.14 43.69,0.51 l -32.95,-334.592 c -4.36,-0.039 -8.7,-0.058 -13.06,-0.058" />
          <path
             inkscape:connector-curvature="0"
             id="path308"
             style="fill:#92d9bf;fill-opacity:1;fill-rule:nonzero;stroke:none"
             d="m 4150.23,786.109 h -28.35 l 8.9,90.379 c 14.43,0.121 28.84,0.461 43.12,1 -9.11,-34.707 -17.26,-66.308 -23.67,-91.379" />
          <path
             inkscape:connector-curvature="0"
             id="path310"
             style="fill:#8dd3b7;fill-opacity:1;fill-rule:nonzero;stroke:none"
             d="m 4318.82,786.109 h -168.59 c 6.41,25.071 14.56,56.672 23.67,91.379 61.13,2.344 119.97,8.524 168.91,18.551 l -23.99,-109.93" />
          <path
             inkscape:connector-curvature="0"
             id="path312"
             style="fill:#9bdcc5;fill-opacity:1;fill-rule:nonzero;stroke:none"
             d="m 4130.78,876.488 32.95,334.592 c 80.73,1.92 192.27,10.04 256.19,38.3 l -77.11,-353.341 c -48.94,-10.027 -107.78,-16.207 -168.91,-18.551 -14.28,-0.539 -28.69,-0.879 -43.12,-1" />
          <path
             inkscape:connector-curvature="0"
             id="path314"
             style="fill:#f0365b;fill-opacity:1;fill-rule:nonzero;stroke:none"
             d="m 3585.81,998.77 29.67,-129.821 c 5.4,-23.617 20.58,-43.82 41.77,-55.59 l 52.56,-29.211 128.76,-9.539 -90.6,28.621 -38.69,20.36 c -33.73,17.75 -60.89,45.84 -77.49,80.148 l -45.98,95.032" />
          <path
             inkscape:connector-curvature="0"
             id="path316"
             style="fill:#3d9360;fill-opacity:1;fill-rule:nonzero;stroke:none"
             d="m 3802.16,786.109 v 0 l -54.19,17.121 54.19,-17.121 m -92.88,37.481 c -7.9,4.16 -15.43,8.871 -22.55,14.109 0.05,-0.008 0.11,-0.019 0.16,-0.027 7.09,-5.211 14.54,-9.953 22.39,-14.082" />
          <path
             inkscape:connector-curvature="0"
             id="path318"
             style="fill:#e92f3c;fill-opacity:1;fill-rule:nonzero;stroke:none"
             d="m 3802.16,786.109 h -72.06 c 0,0 -57.47,15.332 -88.13,42.153 -3.28,2.867 -7.09,10.699 -11.28,22.597 9.76,-2.738 19.55,-5.3 29.43,-7.57 8.83,-2.039 17.7,-3.898 26.61,-5.59 7.12,-5.238 14.65,-9.949 22.55,-14.109 v 0 l 38.69,-20.36 54.19,-17.121" />
          <path
             inkscape:connector-curvature="0"
             id="path320"
             style="fill:#f0365b;fill-opacity:1;fill-rule:nonzero;stroke:none"
             d="m 4662.39,998.77 -29.67,-129.821 c -5.4,-23.617 -20.58,-43.82 -41.76,-55.59 l -52.56,-29.211 -128.77,-9.539 90.61,28.621 38.69,20.36 c 33.73,17.75 60.88,45.84 77.49,80.148 l 45.97,95.032" />
          <path
             inkscape:connector-curvature="0"
             id="path322"
             style="fill:#3d9360;fill-opacity:1;fill-rule:nonzero;stroke:none"
             d="m 4538.93,823.59 c 7.85,4.129 15.3,8.871 22.39,14.082 0.05,0.008 0.1,0.019 0.15,0.019 -7.12,-5.23 -14.65,-9.941 -22.54,-14.101" />
          <path
             inkscape:connector-curvature="0"
             id="path324"
             style="fill:#e92f3c;fill-opacity:1;fill-rule:nonzero;stroke:none"
             d="m 4505.41,786.109 h -59.36 l 54.19,17.121 38.69,20.36 v 0 c 7.89,4.16 15.42,8.871 22.54,14.101 8.9,1.7 17.78,3.559 26.62,5.598 5.13,1.18 10.24,2.441 15.34,3.762 -3.64,-9.762 -6.98,-16.242 -9.89,-18.789 -30.66,-26.821 -88.13,-42.153 -88.13,-42.153" />
        </g>
      </g>
      <path
         inkscape:connector-curvature="0"
         id="path326"
         style="fill:#292827;fill-opacity:1;fill-rule:nonzero;stroke:none"
         d="m 4608.87,2563.04 c 0,0 -80.58,187.61 -497.16,179.13 -416.59,8.48 -497.16,-179.13 -497.16,-179.13 L 3742.43,2359 c 81.94,28.24 359.54,39.82 369.28,40.22 9.74,-0.4 287.34,-11.98 369.28,-40.22 l 127.88,204.04" />
      <path
         inkscape:connector-curvature="0"
         id="path328"
         style="fill:#3e3d3f;fill-opacity:1;fill-rule:nonzero;stroke:none"
         d="m 4468.06,2392.57 c -18.74,4.48 -41.97,8.5 -67.37,11.95 l 130.47,204.85 c -56.44,45.63 -168.41,101.96 -378.65,104.26 l -187.6,-294.39 v 0 c -35.16,-2.76 -72.76,-6.21 -108.05,-10.23 l 193.8,304.27 c -85.4,-2.41 -153.79,-14.02 -208.28,-29.89 h -0.11 l -135.65,-213 -58.39,93.11 c 17.36,24.95 69.66,83.8 194.04,119.89 h 0.11 c 54.49,15.87 122.88,27.48 208.28,29.89 11.05,0.35 22.31,0.46 33.92,0.46 8.74,0 17.59,-0.11 26.55,-0.34 h 1.15 c 9.09,0.23 17.82,0.34 26.56,0.34 4.6,0 9.19,0 13.67,-0.11 210.24,-2.3 322.21,-58.63 378.65,-104.26 22.87,-18.51 36.56,-35.18 44.03,-45.87 l -107.13,-170.93" />
      <path
         inkscape:connector-curvature="0"
         id="path330"
         style="fill:#292827;fill-opacity:1;fill-rule:nonzero;stroke:none"
         d="m 4497.74,2307.28 122.62,206.91 c 0,0 7.67,-720.35 -11.49,-881.28 0,0 -99.63,57.47 -122.62,99.62 l 11.49,574.75" />
      <path
         inkscape:connector-curvature="0"
         id="path332"
         style="fill:#3e3d3f;fill-opacity:1;fill-rule:nonzero;stroke:none"
         d="m 4584.24,1682.4 c -28.22,19.2 -56.78,41.67 -69.08,58.23 l 11.17,558.51 66.1,111.56 c 1.14,-184.19 2.08,-565.38 -8.19,-728.3" />
      <path
         inkscape:connector-curvature="0"
         id="path334"
         style="fill:#292827;fill-opacity:1;fill-rule:nonzero;stroke:none"
         d="m 3732.93,2307.28 -122.62,206.91 c 0,0 -7.65,-720.35 11.5,-881.28 0,0 99.62,57.47 122.61,99.62 l -11.49,574.75" />
      <path
         inkscape:connector-curvature="0"
         id="path336"
         style="fill:#3e3d3f;fill-opacity:1;fill-rule:nonzero;stroke:none"
         d="m 3646.45,1682.4 c -10.28,162.92 -9.35,544.11 -8.21,728.3 l 66.12,-111.56 11.17,-558.51 c -12.31,-16.56 -40.87,-39.03 -69.08,-58.23" />
      <path
         inkscape:connector-curvature="0"
         id="path338"
         style="fill:#292827;fill-opacity:1;fill-rule:nonzero;stroke:none"
         d="m 4495.58,1629.07 c -64.6,-49.69 -143.81,-76.63 -225.32,-76.63 h -315.45 c -81.5,0 -160.71,26.94 -225.31,76.63 0,0 -38.32,-306.53 53.64,-367.84 68.87,-45.91 245.2,-50.99 329.4,-50.64 84.2,-0.35 260.52,4.73 329.39,50.64 91.97,61.31 53.65,367.84 53.65,367.84" />
      <path
         inkscape:connector-curvature="0"
         id="path340"
         style="fill:#3e3d3f;fill-opacity:1;fill-rule:nonzero;stroke:none"
         d="m 3903.42,1252.84 v 0 c -36.44,5.98 -66.1,13.68 -87.02,22.99 l 157.95,247.83 h -19.55 c -51.72,0 -102.99,10.24 -150.7,29.78 l -53.56,-84.04 v 0 c -0.92,36.45 0.22,74.15 2.87,109.1 16.32,-9.54 33.22,-17.93 50.69,-25.06 47.71,-19.54 98.98,-29.78 150.7,-29.78 h 315.42 c 70.7,0 140.7,19.2 201.51,54.84 2,-26.82 3.14,-55.12 3.15,-83.24 -0.01,28.12 -1.15,56.42 -3.15,83.24 -60.81,-35.64 -130.81,-54.84 -201.51,-54.84 h -194.15 l -172.65,-270.82 m 449.11,5.86 121.27,190.36 c -3.79,-76.55 -17.93,-144.03 -47.82,-163.91 -15.63,-10.46 -40.7,-19.44 -73.45,-26.45" />
      <path
         inkscape:connector-curvature="0"
         id="path342"
         style="fill:#50be9b;fill-opacity:1;fill-rule:nonzero;stroke:none"
         d="m 4783.2,2365.17 -0.1,-0.18 -139.43,6.35 -1.38,20.64 -33.13,-10.32 2.93,43.14 50.22,27.47 7.42,0.61 86.35,-21.18 c 0,0 24.61,-44.49 27.12,-66.53" />
      <path
         inkscape:connector-curvature="0"
         id="path344"
         style="fill:#368871;fill-opacity:1;fill-rule:nonzero;stroke:none"
         d="m 4783.1,2364.99 -76.25,3.47 -63.18,2.88 -1.38,20.64 -20.95,-6.53 -12.18,-3.79 2.93,43.14 50.22,27.47 7.42,0.61 c 2.76,-27.04 4.14,-67.71 4.14,-67.71 l 109.23,-19.77 v -0.41" />
      <path
         inkscape:connector-curvature="0"
         id="path346"
         style="fill:#50be9b;fill-opacity:1;fill-rule:nonzero;stroke:none"
         d="m 3452.01,2365.17 0.1,-0.18 139.43,6.35 1.38,20.64 33.13,-10.32 -2.93,43.14 -50.22,27.47 -7.42,0.61 -86.35,-21.18 c 0,0 -24.62,-44.49 -27.12,-66.53" />
      <path
         inkscape:connector-curvature="0"
         id="path348"
         style="fill:#368871;fill-opacity:1;fill-rule:nonzero;stroke:none"
         d="m 3452.11,2364.99 v 0.41 l 109.23,19.77 c 0,0 1.38,40.67 4.14,67.71 l 7.42,-0.61 50.22,-27.47 2.93,-43.14 -16.71,5.21 -16.42,5.11 -1.38,-20.64 -62.88,-2.86 -76.55,-3.49" />
      <path
         inkscape:connector-curvature="0"
         id="path350"
         style="fill:#a7e0cc;fill-opacity:1;fill-rule:nonzero;stroke:none"
         d="m 4423.03,1648.23 -68.97,42.73 -91.96,485.18 c 0,0 -85.37,89.02 -351.7,89.02 -2.81,0 -5.63,-0.01 -8.48,-0.03 -0.52,-0.01 -1.06,-0.01 -1.58,-0.01 -79.58,0 -124.86,42.24 -124.86,42.24 0,0 158.87,30.31 346.07,30.31 97.69,0 203.05,-8.24 297.65,-33.35 l 3.83,-656.09" />
      <path
         inkscape:connector-curvature="0"
         id="path352"
         style="fill:#515254;fill-opacity:1;fill-rule:nonzero;stroke:none"
         d="m 3755.36,2392.57 -48.74,77.82 135.65,213 h 0.11 c 54.49,15.87 122.88,27.48 208.28,29.89 l -193.8,-304.27 v 0 h -0.11 c -38.63,-4.6 -74.48,-10.01 -101.39,-16.44" />
      <path
         inkscape:connector-curvature="0"
         id="path354"
         style="fill:#515254;fill-opacity:1;fill-rule:nonzero;stroke:none"
         d="m 4400.69,2404.52 v 0 c -115.75,16.33 -278.76,23.11 -287.84,23.46 h -2.29 c -5.64,-0.24 -69.9,-2.88 -145.65,-8.74 l 187.6,294.39 c 210.24,-2.3 322.21,-58.63 378.65,-104.26 l -130.47,-204.85" />
      <path
         inkscape:connector-curvature="0"
         id="path356"
         style="fill:#515254;fill-opacity:1;fill-rule:nonzero;stroke:none"
         d="m 3816.4,1275.83 v 0 c -6.66,2.99 -12.53,6.09 -17.36,9.32 -32.53,21.71 -46.21,99.54 -48.5,184.25 l 53.56,84.04 c 47.71,-19.54 98.98,-29.78 150.7,-29.78 h 19.55 L 3816.4,1275.83" />
      <path
         inkscape:connector-curvature="0"
         id="path358"
         style="fill:#515254;fill-opacity:1;fill-rule:nonzero;stroke:none"
         d="m 4120.21,1239.28 h -15.29 c -78.5,0 -147.59,4.83 -201.5,13.56 l 172.65,270.82 h 194.15 c 70.7,0 140.7,19.2 201.51,54.84 2,-26.82 3.14,-55.12 3.15,-83.24 0,-15.51 -0.35,-30.96 -1.08,-46.08 v -0.12 0 L 4352.53,1258.7 v 0 h -0.12 c -57.24,-12.53 -137.82,-19.42 -232.2,-19.42" />
      <path
         inkscape:connector-curvature="0"
         id="path360"
         style="fill:#f9f9f9;fill-opacity:1;fill-rule:nonzero;stroke:none"
         d="m 4589.67,3497.01 -99.32,23.91 -78.86,18.97 c -11.83,2.76 -21.71,10.69 -27.12,21.6 l -13.57,27.25 c 0,0 10.47,-1.04 26.45,-2.99 16.55,-2.07 38.84,-5.06 61.49,-8.85 28.62,-4.83 57.82,-11.04 76.55,-18.28 33.23,-12.87 46.57,-37.58 51.51,-51.38 2.29,-6.2 2.87,-10.23 2.87,-10.23" />
      <path
         inkscape:connector-curvature="0"
         id="path362"
         style="fill:#86857f;fill-opacity:1;fill-rule:nonzero;stroke:none"
         d="m 4589.67,3497.01 -178.18,42.88 c -11.83,2.76 -21.71,10.69 -27.12,21.6 l -13.57,27.25 c 0,0 10.47,-1.04 26.45,-2.99 11.6,-21.84 39.92,-29.72 66.01,-38.93 32.57,-11.49 97.71,-22.99 123.54,-39.58 2.29,-6.2 2.87,-10.23 2.87,-10.23" />
      <path
         inkscape:connector-curvature="0"
         id="path364"
         style="fill:#d9d3dc;fill-opacity:1;fill-rule:nonzero;stroke:none"
         d="m 4586.8,3507.24 c -22.27,14.3 -73.72,24.81 -108.37,34.8 -0.43,0.78 -0.87,1.56 -1.3,2.33 -6.2,10.81 -12.3,21.72 -18.39,32.53 28.62,-4.83 57.82,-11.04 76.55,-18.28 33.23,-12.87 46.57,-37.58 51.51,-51.38" />
      <path
         inkscape:connector-curvature="0"
         id="path366"
         style="fill:#737071;fill-opacity:1;fill-rule:nonzero;stroke:none"
         d="m 4589.67,3497.01 -99.32,23.91 c -3.93,7.04 -7.96,14.08 -11.92,21.12 34.65,-9.99 86.1,-20.5 108.37,-34.8 v 0 c 2.29,-6.2 2.87,-10.23 2.87,-10.23" />
      <path
         inkscape:connector-curvature="0"
         id="path368"
         style="fill:#f9f9f9;fill-opacity:1;fill-rule:nonzero;stroke:none"
         d="m 3644.71,3497.01 99.31,23.91 78.86,18.97 c 11.84,2.76 21.72,10.69 27.13,21.6 l 13.55,27.25 c 0,0 -10.45,-1.04 -26.43,-2.99 -16.55,-2.07 -38.85,-5.06 -61.5,-8.85 -28.62,-4.83 -57.82,-11.04 -76.56,-18.28 -33.21,-12.87 -46.55,-37.58 -51.49,-51.38 -2.3,-6.2 -2.87,-10.23 -2.87,-10.23" />
      <path
         inkscape:connector-curvature="0"
         id="path370"
         style="fill:#86857f;fill-opacity:1;fill-rule:nonzero;stroke:none"
         d="m 3644.71,3497.01 178.17,42.88 c 11.84,2.76 21.72,10.69 27.13,21.6 l 13.55,27.25 c 0,0 -10.45,-1.04 -26.43,-2.99 -11.61,-21.84 -39.92,-29.72 -66.02,-38.93 -32.57,-11.49 -97.7,-22.99 -123.53,-39.58 -2.3,-6.2 -2.87,-10.23 -2.87,-10.23" />
      <path
         inkscape:connector-curvature="0"
         id="path372"
         style="fill:#d9d3dc;fill-opacity:1;fill-rule:nonzero;stroke:none"
         d="m 3647.58,3507.24 c 4.94,13.8 18.28,38.51 51.49,51.38 18.74,7.24 47.94,13.45 76.56,18.28 -6.09,-10.81 -12.18,-21.72 -18.39,-32.53 -0.44,-0.78 -0.87,-1.55 -1.31,-2.33 -34.64,-9.99 -86.09,-20.5 -108.35,-34.8" />
      <path
         inkscape:connector-curvature="0"
         id="path374"
         style="fill:#737071;fill-opacity:1;fill-rule:nonzero;stroke:none"
         d="m 3644.71,3497.01 c 0,0 0.57,4.03 2.87,10.23 v 0 c 22.26,14.3 73.71,24.81 108.35,34.8 -3.95,-7.04 -7.97,-14.08 -11.91,-21.12 l -99.31,-23.91" />
      <path
         inkscape:connector-curvature="0"
         id="path376"
         style="fill:#292827;fill-opacity:1;fill-rule:nonzero;stroke:none"
         d="m 4502.54,1895.91 106.33,-57.05 2.87,50.9 -114.95,58.32 5.75,-52.17" />
      <path
         inkscape:connector-curvature="0"
         id="path378"
         style="fill:#292827;fill-opacity:1;fill-rule:nonzero;stroke:none"
         d="m 3726.62,1895.91 -106.33,-57.05 -2.87,50.9 114.95,58.32 -5.75,-52.17" />
      <path
         inkscape:connector-curvature="0"
         id="path380"
         style="fill:#44a182;fill-opacity:1;fill-rule:nonzero;stroke:none"
         d="m 4440.15,3505.64 c -6.14,0.9 -12.15,1.84 -17.99,2.87 5.84,-1.03 11.86,-1.96 17.99,-2.86 v 0 m -17.99,2.86 c -14.61,2.58 -36.87,7.22 -67.89,14.17 0,0.01 0,0.01 0,0.01 30.96,-6.94 53.3,-11.61 67.89,-14.18" />
      <path
         inkscape:connector-curvature="0"
         id="path382"
         style="fill:#52c19a;fill-opacity:1;fill-rule:nonzero;stroke:none"
         d="m 4459.43,2841.8 c 0,0 -28.74,123.57 -51.73,298.86 -19.35,147.55 -32.59,315.42 -53.43,382.03 31.02,-6.96 53.28,-11.6 67.89,-14.18 v 0 0 c 5.84,-1.03 11.85,-1.97 17.99,-2.87 l 19.28,-663.84" />
      <path
         inkscape:connector-curvature="0"
         id="path384"
         style="fill:#44a182;fill-opacity:1;fill-rule:nonzero;stroke:none"
         d="m 3835.2,3512.74 v 0 c 3.26,0.67 6.75,1.39 10.45,2.17 -3.7,-0.78 -7.19,-1.51 -10.45,-2.17" />
      <path
         inkscape:connector-curvature="0"
         id="path386"
         style="fill:#52c19a;fill-opacity:1;fill-rule:nonzero;stroke:none"
         d="m 3815.71,2841.8 19.49,670.94 c 3.26,0.66 6.75,1.39 10.45,2.17 13.57,2.85 30.09,6.45 49.8,10.86 9.48,2.12 19.01,4.09 28.56,5.93 -22.68,-59.11 -36.27,-236.24 -56.57,-391.04 -22.99,-175.29 -51.73,-298.86 -51.73,-298.86" />
    </g>
  </g>
</svg>
