<?xml version="1.0" encoding="UTF-8" standalone="no"?>
<!-- Created with Inkscape (http://www.inkscape.org/) -->

<svg
   xmlns:dc="http://purl.org/dc/elements/1.1/"
   xmlns:cc="http://creativecommons.org/ns#"
   xmlns:rdf="http://www.w3.org/1999/02/22-rdf-syntax-ns#"
   xmlns:svg="http://www.w3.org/2000/svg"
   xmlns="http://www.w3.org/2000/svg"
   xmlns:sodipodi="http://sodipodi.sourceforge.net/DTD/sodipodi-0.dtd"
   xmlns:inkscape="http://www.inkscape.org/namespaces/inkscape"
   width="71.335167mm"
   height="125.18089mm"
   viewBox="0 0 71.335167 125.18088"
   version="1.1"
   id="svg1522"
   inkscape:version="0.92.2 5c3e80d, 2017-08-06"
   sodipodi:docname="car_yellow.svg">
  <defs
     id="defs1516">
    <clipPath
       clipPathUnits="userSpaceOnUse"
       id="clipPath24">
      <path
         d="m 1678.8,1958.76 c -6.13,410.72 -31.39,677.58 -20.93,803.16 6.76,81.06 1.52,286.57 -3.04,482.24 -2.65,113.62 -70.74,300.33 -174.71,346.24 -21.57,9.52 -339.37,75.83 -462.54,75.83 -116.678,0 -400.506,-65.93 -420.584,-74.79 l -2.363,-1.04 c -103.969,-45.91 -172.067,-239.59 -174.711,-353.21 -4.563,-195.68 -9.801,-394.21 -3.043,-475.27 10.465,-125.58 -14.801,-392.44 -20.934,-803.16 -1.906,-128.07 15.735,-590.56 25.375,-928.63 3.383,-118.54 94.696,-215.821 212.77,-226.778 0,0 293.785,-36.422 392.28,-36.422 98.49,0 414.29,36.422 414.29,36.422 118.08,10.957 209.39,108.238 212.77,226.778 9.64,338.07 27.28,800.56 25.37,928.63"
         id="path22"
         inkscape:connector-curvature="0" />
    </clipPath>
    <clipPath
       clipPathUnits="userSpaceOnUse"
       id="clipPath188">
      <path
         d="m 3086.6,3468.26 c -73.61,70.22 -168.13,114.5 -269.2,126.11 -127.86,14.7 -256.98,14.7 -384.84,0 -101.07,-11.61 -195.58,-55.89 -269.2,-126.11 -93.58,-89.26 -145.99,-213.3 -144.76,-342.62 l 2.08,-217.5 32.02,-336.17 -20.01,-568.29 -10.89,-1153.43 c -0.68,-72.25 41.96,-137.898 108.24,-166.668 67.91,-29.473 140.68,-46.133 214.65,-49.152 l 236.1,-9.641 c 29.44,-1.199 58.94,-1.199 88.38,0 l 236.1,9.641 c 73.97,3.019 146.74,19.679 214.65,49.152 66.29,28.77 108.92,94.418 108.24,166.668 l -10.89,1153.43 -20,568.29 32.02,336.17 2.07,217.5 c 1.23,129.32 -51.18,253.36 -144.76,342.62"
         id="path186"
         inkscape:connector-curvature="0" />
    </clipPath>
  </defs>
  <sodipodi:namedview
     id="base"
     pagecolor="#ffffff"
     bordercolor="#666666"
     borderopacity="1.0"
     inkscape:pageopacity="0.0"
     inkscape:pageshadow="2"
     inkscape:zoom="0.35"
     inkscape:cx="-379.44999"
     inkscape:cy="144.7871"
     inkscape:document-units="mm"
     inkscape:current-layer="layer1"
     showgrid="false"
     inkscape:window-width="1920"
     inkscape:window-height="1029"
     inkscape:window-x="0"
     inkscape:window-y="27"
     inkscape:window-maximized="1"
     fit-margin-top="10"
     fit-margin-bottom="10"
     fit-margin-left="10"
     fit-margin-right="10" />
  <metadata
     id="metadata1519">
    <rdf:RDF>
      <cc:Work
         rdf:about="">
        <dc:format>image/svg+xml</dc:format>
        <dc:type
           rdf:resource="http://purl.org/dc/dcmitype/StillImage" />
        <dc:title></dc:title>
      </cc:Work>
    </rdf:RDF>
  </metadata>
  <g
     inkscape:label="Calque 1"
     inkscape:groupmode="layer"
     id="layer1"
     transform="translate(-74.315785,-61.960708)">
    <g
       id="g1376"
       transform="matrix(0.03527778,0,0,-0.03527778,16.869256,199.15104)">
      <g
         id="g182">
        <g
           clip-path="url(#clipPath188)"
           id="g184">
          <path
             inkscape:connector-curvature="0"
             id="path190"
             style="fill:#f89c26;fill-opacity:1;fill-rule:nonzero;stroke:none"
             d="m 3089.31,3484.08 c -73.8,70.61 -168.56,115.13 -269.89,126.81 -128.18,14.78 -257.63,14.78 -385.82,0 -101.32,-11.68 -196.07,-56.2 -269.87,-126.81 -93.82,-89.76 -146.36,-214.49 -145.13,-344.52 l 2.08,-218.72 32.1,-338.04 -20.06,-571.44 -10.91,-1159.848 c -0.68,-72.653 42.06,-138.672 108.52,-167.59 68.07,-29.641 141.03,-46.402 215.18,-49.43 l 236.7,-9.703 c 29.53,-1.199 59.09,-1.199 88.61,0 l 236.7,9.703 c 74.15,3.028 147.11,19.789 215.19,49.43 66.45,28.918 109.19,94.937 108.51,167.59 l -10.91,1159.848 -20.06,571.44 32.09,338.04 2.08,218.72 c 1.23,130.03 -51.31,254.76 -145.11,344.52" />
          <path
             inkscape:connector-curvature="0"
             id="path192"
             style="fill:#87817d;fill-opacity:1;fill-rule:nonzero;stroke:none"
             d="m 2624.98,623.891 c -14.73,0 -29.47,0.3 -44.19,0.898 l -236.1,9.641 c -73.97,3.019 -146.74,19.679 -214.65,49.152 -66.28,28.77 -108.92,94.418 -108.24,166.668 v 0.219 c -0.26,-72.239 42.38,-137.77 108.53,-166.547 68.07,-29.641 141.03,-46.402 215.18,-49.43 l 236.7,-9.703 c 14.51,-0.578 29.02,-0.879 43.54,-0.898 -0.26,0 -0.51,0 -0.77,0 m -572.5,1950.359 -31.8,333.89 -2.08,217.5 c -0.03,3.72 -0.02,7.43 0.03,11.13 l 2.05,-215.93 32.1,-338.04 -0.3,-8.55" />
          <path
             inkscape:connector-curvature="0"
             id="path194"
             style="fill:#e98016;fill-opacity:1;fill-rule:nonzero;stroke:none"
             d="m 2625.75,623.891 c -14.52,0.019 -29.03,0.32 -43.54,0.898 l -236.7,9.703 c -74.15,3.028 -147.11,19.789 -215.18,49.43 -66.15,28.777 -108.79,94.308 -108.53,166.547 l 10.89,1153.211 11.49,326.43 7.17,1.27 c 10.28,1.76 18.23,9.83 19.89,20.1 2.66,15.59 16.14,27.08 32.06,27.08 h 18.53 V 1320.2 c 29.09,43.05 58.02,86.23 87.34,129.13 11.14,16.29 22.06,32.74 32.75,49.34 l -5.17,795.91 -114.92,450.56 v -311.32 l -44.18,-10.38 -30.44,-7.18 5.49,155.71 -0.22,2.28 0.3,8.55 -32.1,338.04 -2.05,215.93 c 1.79,125.28 53.84,244.8 144.73,331.49 34.23,32.66 72.99,59.7 114.82,80.46 48.12,23.88 100.31,39.44 154.38,45.65 63.93,7.35 128.17,11.03 192.42,11.03 64.25,0 128.49,-3.68 192.42,-11.03 101.07,-11.61 195.59,-55.89 269.2,-126.11 93.58,-89.26 145.99,-213.3 144.76,-342.62 l -2.07,-217.5 -32.02,-336.17 5.24,-148.83 -1.26,0.3 -44.21,10.39 v -55.27 h 18.57 c 12.63,0 23.73,-7.23 29.1,-18.01 l 12.56,-356.87 10.89,-1153.43 c 0.68,-72.25 -41.95,-137.898 -108.24,-166.668 -56.68,-24.602 -116.76,-40.273 -178.08,-46.531 -12.15,-1.25 -24.34,-2.121 -36.57,-2.621 l -236.1,-9.641 c -14.47,-0.578 -28.94,-0.879 -43.42,-0.898 m 319.48,60.879 v 0 c 52.4,1.222 92.96,8.949 124.35,20.339 v 0 0 c 114.61,41.442 107.76,131.633 107.76,131.633 -19.78,-24.871 -62.45,-46.754 -101.9,-62.883 -43.66,-17.687 -83.23,-28.3 -83.23,-28.3 l -46.98,-60.789 v 0 m -772.74,20.339 v 0 c 31.38,-11.39 71.94,-19.117 124.34,-20.339 v 0 0 l -46.98,60.789 c 0,0 -39.57,10.613 -83.22,28.3 -39.46,16.129 -82.12,38.012 -101.91,62.883 0,0 -6.85,-90.191 107.77,-131.633 v 0 m 45.4,333.201 c 20.2,-118.779 40.57,-237.49 40.57,-237.49 80.54,-62.422 279.82,-83.738 382.08,-90.718 102.25,6.98 301.52,28.296 382.07,90.718 0,0 21.86,127.418 42.75,250.32 17.03,26.89 29.95,56.84 37.78,89.11 l 31.83,131.22 -110.53,180.53 v 0 l -2.92,132.6 v 0 l -15.49,702.78 -11.66,62.91 c 6.31,-2 12.32,-4.1 17.96,-6.28 l 71.29,316.02 18.2,59.33 v 0 0 c 0,0 -0.21,6.72 -0.61,18.65 l 4.01,17.8 c 0,0 -1.61,1.81 -4.82,5.06 -3.82,105.02 -15.47,378.97 -35.43,463.22 -21.89,92.44 -124.5,253.2 -427.36,254.2 -383.15,0 -434.94,-187.54 -456.84,-279.99 -19.21,-81.11 -9.65,-322.65 -4.3,-428.41 -9.38,-8.77 -14.12,-14.08 -14.12,-14.08 l 92.89,-411.8 c 9.76,3.77 20.59,7.28 32.24,10.54 l -12.44,-67.17 -16.56,-750.91 c 0,-0.01 0,-0.01 0,-0.01 l -1.86,-84.46 c 0,0 -0.54,-1.16 -1.54,-3.31 -1.76,1.09 -3.39,2.19 -4.88,3.31 l -110.53,-180.53 31.84,-131.22 c 9.1,-37.5 25.07,-71.88 46.38,-101.94 m 934.93,1706.83 -114.93,-450.56 -5.18,-795.91 c 10.7,-16.6 21.63,-33.05 32.76,-49.34 29.32,-42.9 58.25,-86.08 87.35,-129.13 v 1424.94 m -162.2,649.88 c 1.4,-2.34 2.86,-4.64 4.36,-6.91 l 89.2,-135.62 c 5.34,-8.16 13.55,-11.87 21.7,-11.87 12.6,0 25.03,8.88 26.38,23.92 l 4.41,48.63 1.99,21.99 v 0 c 0,0 -10.94,19.45 -29.29,44.43 -28.84,39.35 -75.82,92.73 -126.99,106.33 -7.29,2.1 -14.81,3.21 -22.21,3.43 0.77,-9.4 2.15,-18.72 4.13,-27.88 5.03,-23.42 13.9,-45.88 26.32,-66.45 m -870.44,-59.86 v 0 l 1.98,-21.99 4.43,-48.63 c 1.34,-15.04 13.77,-23.92 26.37,-23.92 8.15,0 16.37,3.71 21.7,11.87 l 89.2,135.62 c 1.62,2.46 3.2,4.96 4.71,7.5 12.89,21.5 21.92,45.06 26.74,69.6 1.57,7.95 2.69,16.01 3.36,24.14 -7.4,-0.22 -14.92,-1.33 -22.21,-3.43 -51.18,-13.6 -98.15,-66.98 -127,-106.33 -18.34,-24.98 -29.28,-44.43 -29.28,-44.43 v 0 m 821.37,93.39 v 0 0 c -16.58,33.16 -25.79,82.9 -25.79,82.9 -33.36,52.43 -225.05,62.73 -277.68,62.73 -3.13,0 -5.75,-0.03 -7.84,-0.1 -2.08,0.07 -4.73,0.1 -7.9,0.1 -53.35,0 -251.62,-10.29 -284.99,-62.73 0,0 -9.21,-49.74 -25.79,-82.9 0,0 82.95,79.2 312.7,79.2 0.78,0 1.52,0 2.29,0 0.77,0 1.53,0 2.29,0 229.79,0 312.71,-79.2 312.71,-79.2" />
          <path
             inkscape:connector-curvature="0"
             id="path196"
             style="fill:#f8a435;fill-opacity:1;fill-rule:nonzero;stroke:none"
             d="m 3100.49,2715.04 1.33,4.32 c 0,0 -11.98,399.73 -36.85,504.73 -21.89,92.44 -124.5,253.2 -427.36,254.2 -383.15,0 -434.94,-187.54 -456.84,-279.99 -24.87,-105 -1.52,-478.94 -1.52,-478.94 l 1.33,-4.32 h 919.91" />
          <path
             inkscape:connector-curvature="0"
             id="path198"
             style="fill:#f89c26;fill-opacity:1;fill-rule:nonzero;stroke:none"
             d="m 3021.52,1584.6 c -95.1,-7.32 -190.34,-13.16 -285.49,-19.89 -159.01,-11.23 -318.25,-20.7 -477.55,-28.25 l -1.86,-84.46 c 0,0 -78.29,-167.63 -78.29,-175.92 0,-8.29 80.13,-475.26 80.13,-475.26 80.54,-62.422 279.82,-83.738 382.08,-90.718 102.25,6.98 301.52,28.296 382.07,90.718 0,0 80.12,466.97 80.12,475.26 0,8.29 -78.29,175.92 -78.29,175.92 l -2.92,132.6" />
        </g>
      </g>
      <path
         inkscape:connector-curvature="0"
         id="path200"
         style="fill:#292827;fill-opacity:1;fill-rule:nonzero;stroke:none"
         d="m 3105.22,2755.81 c 0,0 -162.57,182.5 -471.43,175.08 -308.87,7.42 -471.44,-175.08 -471.44,-175.08 l 92.89,-411.8 c 111.12,42.92 361.07,51.81 378.55,51.88 17.47,-0.07 267.42,-8.96 378.54,-51.88 l 92.89,411.8" />
      <path
         inkscape:connector-curvature="0"
         id="path202"
         style="fill:#3e3d3f;fill-opacity:1;fill-rule:nonzero;stroke:none"
         d="m 2992.1,2379.89 c -38.57,11.28 -85.55,19.68 -132.63,25.98 l 214.42,336.55 -81.79,-362.53 m -667.13,12.16 325.83,511.4 c -5.42,0 -10.83,0 -16.36,-0.22 h -1.33 c -5.96,0.22 -11.82,0.22 -17.57,0.22 -58.58,0 -111.41,-7.18 -158.49,-18.57 h -0.11 l -218.18,-342.4 -46.09,204.58 c 28.3,26.86 118.26,102.56 264.27,137.82 h 0.11 c 47.08,11.39 99.91,18.57 158.49,18.57 5.75,0 11.61,0 17.57,-0.22 h 1.33 c 5.53,0.22 10.94,0.22 16.36,0.22 h 1.33 c 32.6,0 63.33,-2.21 92.39,-6.19 185.8,-24.87 298.2,-119.36 330.47,-150.09 v 0 c -32.27,30.73 -144.67,125.22 -330.47,150.09 l -311.12,-488.3 v 0 c -36.59,-4.31 -74.05,-9.84 -108.43,-16.91" />
      <path
         inkscape:connector-curvature="0"
         id="path204"
         style="fill:#292827;fill-opacity:1;fill-rule:nonzero;stroke:none"
         d="m 3065.47,1449.33 c 29.32,-42.9 58.25,-86.08 87.35,-129.13 v 1424.94 l -114.93,-450.56 -5.18,-795.91 c 10.7,-16.6 21.63,-33.05 32.76,-49.34" />
      <path
         inkscape:connector-curvature="0"
         id="path206"
         style="fill:#3e3d3f;fill-opacity:1;fill-rule:nonzero;stroke:none"
         d="m 3120.97,1454.52 c -18.44,27.38 -56.3,83.2 -56.7,83.79 l 5.44,752.05 51.26,200.92 V 1454.52" />
      <path
         inkscape:connector-curvature="0"
         id="path208"
         style="fill:#292827;fill-opacity:1;fill-rule:nonzero;stroke:none"
         d="m 3052.26,1926.93 86.19,-36.53 -11.97,74.88 -62.25,-4.87 -11.97,-33.48" />
      <path
         inkscape:connector-curvature="0"
         id="path210"
         style="fill:#292827;fill-opacity:1;fill-rule:nonzero;stroke:none"
         d="m 2209.17,1449.33 c -29.32,-42.9 -58.25,-86.08 -87.34,-129.13 v 1424.94 l 114.92,-450.56 5.17,-795.91 c -10.69,-16.6 -21.61,-33.05 -32.75,-49.34" />
      <path
         inkscape:connector-curvature="0"
         id="path212"
         style="fill:#3e3d3f;fill-opacity:1;fill-rule:nonzero;stroke:none"
         d="m 2153.68,1454.52 v 1036.76 l 51.25,-200.92 5.45,-752.05 c -0.41,-0.59 -38.27,-56.41 -56.7,-83.79" />
      <path
         inkscape:connector-curvature="0"
         id="path214"
         style="fill:#292827;fill-opacity:1;fill-rule:nonzero;stroke:none"
         d="m 2222.39,1926.93 -86.2,-36.53 11.97,74.88 62.26,-4.87 11.97,-33.48" />
      <path
         inkscape:connector-curvature="0"
         id="path216"
         style="fill:#292827;fill-opacity:1;fill-rule:nonzero;stroke:none"
         d="M 3134.97,1271.47 3024.44,1452 c -91.53,-68.65 -682.71,-68.65 -774.24,0 l -110.53,-180.53 31.84,-131.22 c 32.39,-133.51 151.94,-227.52 289.33,-227.52 h 352.97 c 137.39,0 256.93,94.01 289.33,227.52 l 31.83,131.22" />
      <path
         inkscape:connector-curvature="0"
         id="path218"
         style="fill:#3e3d3f;fill-opacity:1;fill-rule:nonzero;stroke:none"
         d="m 2840.02,941.742 236.85,371.698 -62.45,102.01 c -77.8,-32.16 -239.95,-40.12 -327.48,-42 L 2413.61,944.5 v 0 c -28.4,4.98 -55.37,14.379 -80.13,27.641 l 255.76,401.309 c -45.31,0.89 -111.41,3.54 -175.29,10.39 L 2222.4,1083.32 v 0 c -10.5,19.68 -18.57,40.9 -24.09,63.45 l -29.07,120.03 90.97,148.65 c 37.57,-15.47 94.82,-25.42 153.74,-31.61 63.88,-6.85 129.98,-9.5 175.29,-10.39 21.43,-0.44 38.24,-0.55 48.07,-0.55 10.06,0 27.42,0.11 49.63,0.55 87.53,1.88 249.68,9.84 327.48,42 l 62.45,-102.01 28.52,-46.64 -29.07,-120.03 c -27.41,-112.96 -122.57,-194.2 -236.3,-205.028" />
      <path
         inkscape:connector-curvature="0"
         id="path220"
         style="fill:#f89c26;fill-opacity:1;fill-rule:nonzero;stroke:none"
         d="m 1911.87,2306.73 139.48,24.65 c 10.28,1.76 18.23,9.83 19.89,20.1 2.66,15.59 16.14,27.08 32.06,27.08 h 18.56 v 55.27 l -44.21,-10.39 -103.12,-24.32 c -29.17,-6.84 -51.39,-30.39 -56.81,-59.9 l -4.19,-23.32 -1.66,-9.17" />
      <path
         inkscape:connector-curvature="0"
         id="path222"
         style="fill:#f37415;fill-opacity:1;fill-rule:nonzero;stroke:none"
         d="m 1911.87,2306.73 1.66,9.17 116.15,35.04 47.97,72.5 44.21,10.39 v -55.27 h -0.03 -18.53 c -15.92,0 -29.4,-11.49 -32.06,-27.08 -1.66,-10.27 -9.61,-18.34 -19.89,-20.1 l -7.17,-1.27 -132.31,-23.38" />
      <path
         inkscape:connector-curvature="0"
         id="path224"
         style="fill:#f89c26;fill-opacity:1;fill-rule:nonzero;stroke:none"
         d="m 3367.04,2306.73 -139.48,24.65 c -10.29,1.76 -18.24,9.83 -19.89,20.1 -2.66,15.59 -16.15,27.08 -32.06,27.08 h -18.57 v 55.27 l 44.21,-10.39 103.13,-24.32 c 29.16,-6.84 51.38,-30.39 56.8,-59.9 l 4.2,-23.32 1.66,-9.17" />
      <path
         inkscape:connector-curvature="0"
         id="path226"
         style="fill:#f37415;fill-opacity:1;fill-rule:nonzero;stroke:none"
         d="m 3365.84,2306.94 -138.28,24.44 c -10.29,1.76 -18.24,9.83 -19.89,20.1 -0.55,3.22 -1.56,6.27 -2.96,9.07 -5.37,10.78 -16.47,18.01 -29.1,18.01 h -18.57 v 55.27 l 44.21,-10.39 47.97,-72.5 116.16,-35.04 0.47,-2.6 c 0,-2.11 -0.01,-4.24 -0.01,-6.36" />
      <path
         inkscape:connector-curvature="0"
         id="path228"
         style="fill:#f9f9f9;fill-opacity:1;fill-rule:nonzero;stroke:none"
         d="m 3138.66,3335.16 -1.99,-21.99 -4.41,-48.63 c -2.22,-24.76 -34.49,-32.83 -48.08,-12.05 l -89.2,135.62 c -3.64,5.52 -7.07,11.27 -9.95,17.12 -14.03,25.98 -22.43,54.6 -24.86,84.12 7.4,-0.22 14.92,-1.33 22.21,-3.43 51.17,-13.6 98.15,-66.98 126.99,-106.33 18.35,-24.98 29.29,-44.43 29.29,-44.43" />
      <path
         inkscape:connector-curvature="0"
         id="path230"
         style="fill:#86857f;fill-opacity:1;fill-rule:nonzero;stroke:none"
         d="m 3136.67,3313.17 -4.41,-48.63 c -2.22,-24.76 -34.49,-32.83 -48.08,-12.05 l -89.2,135.62 c -19.89,30.28 -31.83,65.09 -34.81,101.24 7.4,-0.22 14.92,-1.33 22.21,-3.43 -9.5,-7.63 1.21,-55.15 18.13,-76.71 19.49,-24.81 60.31,-77.48 87.07,-112.06 11.75,-15.18 35.32,-12.62 43.64,4.68 l 5.45,11.34" />
      <path
         inkscape:connector-curvature="0"
         id="path232"
         style="fill:#d9d3dc;fill-opacity:1;fill-rule:nonzero;stroke:none"
         d="m 3107.88,3287.16 c -7.52,0 -15.08,3.24 -20.3,9.99 -24,31.01 -59.3,76.56 -80.39,103.53 34.07,-6.99 68.13,-14 102.18,-21.09 18.35,-24.98 29.29,-44.43 29.29,-44.43 l -1.99,-21.99 -5.45,-11.34 c -4.62,-9.61 -13.94,-14.67 -23.34,-14.67 m -112.9,100.95 c -1.5,2.27 -2.96,4.57 -4.36,6.91 1.41,-2.33 2.86,-4.63 4.36,-6.91" />
      <path
         inkscape:connector-curvature="0"
         id="path234"
         style="fill:#737071;fill-opacity:1;fill-rule:nonzero;stroke:none"
         d="m 3105.88,3240.62 c -8.15,0 -16.36,3.71 -21.7,11.87 l -89.2,135.62 v 0 c -1.5,2.28 -2.95,4.58 -4.36,6.91 v 0 c -2.01,3.35 -3.89,6.77 -5.59,10.21 7.39,-1.51 14.77,-3.03 22.16,-4.55 21.09,-26.97 56.39,-72.52 80.39,-103.53 5.22,-6.75 12.78,-9.99 20.3,-9.99 9.4,0 18.72,5.06 23.34,14.67 l 5.45,11.34 -4.41,-48.63 c -1.35,-15.04 -13.78,-23.92 -26.38,-23.92" />
      <path
         inkscape:connector-curvature="0"
         id="path236"
         style="fill:#f9f9f9;fill-opacity:1;fill-rule:nonzero;stroke:none"
         d="m 2120.18,3335.16 1.98,-21.99 4.43,-48.63 c 2.2,-24.76 34.48,-32.83 48.07,-12.05 l 89.2,135.62 c 3.65,5.52 7.07,11.27 9.94,17.12 14.04,25.98 22.44,54.6 24.87,84.12 -7.4,-0.22 -14.92,-1.33 -22.21,-3.43 -51.18,-13.6 -98.15,-66.98 -127,-106.33 -18.34,-24.98 -29.28,-44.43 -29.28,-44.43" />
      <path
         inkscape:connector-curvature="0"
         id="path238"
         style="fill:#86857f;fill-opacity:1;fill-rule:nonzero;stroke:none"
         d="m 2122.16,3313.17 4.43,-48.63 c 2.2,-24.76 34.48,-32.83 48.07,-12.05 l 89.2,135.62 c 19.89,30.28 31.83,65.09 34.81,101.24 -7.4,-0.22 -14.92,-1.33 -22.21,-3.43 9.5,-7.63 -1.22,-55.15 -18.13,-76.71 -19.5,-24.81 -60.31,-77.48 -87.07,-112.06 -11.75,-15.18 -35.32,-12.62 -43.64,4.68 l -5.46,11.34" />
      <path
         inkscape:connector-curvature="0"
         id="path240"
         style="fill:#d9d3dc;fill-opacity:1;fill-rule:nonzero;stroke:none"
         d="m 2150.95,3287.16 c -9.39,0 -18.71,5.06 -23.33,14.67 l -5.46,11.34 -1.98,21.99 c 0,0 10.94,19.45 29.28,44.43 34.07,7.09 68.13,14.1 102.19,21.09 -21.1,-26.97 -56.39,-72.52 -80.39,-103.53 -5.22,-6.75 -12.79,-9.99 -20.31,-9.99 m 112.91,100.95 c 1.62,2.47 3.19,4.97 4.71,7.5 -1.51,-2.54 -3.09,-5.04 -4.71,-7.5" />
      <path
         inkscape:connector-curvature="0"
         id="path242"
         style="fill:#737071;fill-opacity:1;fill-rule:nonzero;stroke:none"
         d="m 2152.96,3240.62 c -12.6,0 -25.03,8.88 -26.37,23.92 l -4.43,48.63 5.46,-11.34 c 4.62,-9.61 13.94,-14.67 23.33,-14.67 7.52,0 15.09,3.24 20.31,9.99 24,31.01 59.29,76.56 80.39,103.53 7.38,1.52 14.77,3.04 22.15,4.55 -1.59,-3.24 -3.35,-6.46 -5.23,-9.62 v 0 c -1.52,-2.53 -3.09,-5.03 -4.71,-7.5 v 0 l -89.2,-135.62 c -5.33,-8.16 -13.55,-11.87 -21.7,-11.87" />
      <path
         inkscape:connector-curvature="0"
         id="path244"
         style="fill:#f2bb5e;fill-opacity:1;fill-rule:nonzero;stroke:none"
         d="m 2890.46,1575.22 -87.06,576.77 c 0,0 -253.85,158.66 -454.58,158.66 -4.47,0 -8.9,-0.08 -13.31,-0.24 0,0 152.75,36.59 332.74,36.59 93.93,0 195.25,-9.95 286.2,-40.27 l 3.38,-726.84 c -22.46,-1.6 -44.91,-3.14 -67.37,-4.67" />
      <path
         inkscape:connector-curvature="0"
         id="path246"
         style="fill:#f2bb5e;fill-opacity:1;fill-rule:nonzero;stroke:none"
         d="m 2958.13,1514.63 -66.31,51.58 -1.36,9.01 c 22.46,1.53 44.91,3.07 67.37,4.67 l 0.3,-65.26" />
      <path
         inkscape:connector-curvature="0"
         id="path248"
         style="fill:#f0365b;fill-opacity:1;fill-rule:nonzero;stroke:none"
         d="m 3069.58,705.109 c -31.39,-11.39 -71.95,-19.117 -124.35,-20.339 l 46.98,60.789 c 0,0 39.57,10.613 83.23,28.3 39.45,16.129 82.12,38.012 101.9,62.883 0,0 6.85,-90.191 -107.76,-131.633" />
      <path
         inkscape:connector-curvature="0"
         id="path250"
         style="fill:#e92f3c;fill-opacity:1;fill-rule:nonzero;stroke:none"
         d="m 2945.23,684.77 46.98,60.789 c 0,0 39.57,10.613 83.23,28.3 -2.22,-2.429 -4.42,-4.757 -6.63,-7.187 -6.3,-6.961 -12.82,-14.262 -15.81,-23.102 -4.75,-14.59 3.76,-30.621 16.58,-38.461 -31.39,-11.39 -71.95,-19.117 -124.35,-20.339" />
      <path
         inkscape:connector-curvature="0"
         id="path252"
         style="fill:#f0365b;fill-opacity:1;fill-rule:nonzero;stroke:none"
         d="m 2172.49,705.109 c 31.38,-11.39 71.94,-19.117 124.34,-20.339 l -46.98,60.789 c 0,0 -39.57,10.613 -83.22,28.3 -39.46,16.129 -82.12,38.012 -101.91,62.883 0,0 -6.85,-90.191 107.77,-131.633" />
      <path
         inkscape:connector-curvature="0"
         id="path254"
         style="fill:#e92f3c;fill-opacity:1;fill-rule:nonzero;stroke:none"
         d="m 2296.83,684.77 c -52.4,1.222 -92.96,8.949 -124.34,20.339 12.81,7.84 21.32,23.871 16.57,38.461 -2.98,8.84 -9.5,16.141 -15.8,23.102 -2.22,2.43 -4.42,4.758 -6.63,7.187 43.65,-17.687 83.22,-28.3 83.22,-28.3 l 46.98,-60.789" />
      <path
         inkscape:connector-curvature="0"
         id="path256"
         style="fill:#515254;fill-opacity:1;fill-rule:nonzero;stroke:none"
         d="m 2275.45,2379.89 -36.69,162.59 218.18,342.4 h 0.11 c 47.08,11.39 99.91,18.57 158.49,18.57 5.75,0 11.61,0 17.57,-0.22 h 1.33 c 5.53,0.22 10.94,0.22 16.36,0.22 l -325.83,-511.4 v 0 c -17.46,-3.64 -34.15,-7.63 -49.52,-12.16" />
      <path
         inkscape:connector-curvature="0"
         id="path258"
         style="fill:#515254;fill-opacity:1;fill-rule:nonzero;stroke:none"
         d="m 2859.47,2405.87 v 0 c -111.74,14.8 -223.92,17.68 -225.58,17.68 -1.66,0 -97.71,-2.43 -200.49,-14.59 l 311.12,488.3 c 185.8,-24.87 298.2,-119.36 330.47,-150.09 l -1.1,-4.75 -214.42,-336.55" />
      <path
         inkscape:connector-curvature="0"
         id="path260"
         style="fill:#515254;fill-opacity:1;fill-rule:nonzero;stroke:none"
         d="m 2333.48,972.141 v 0 c -46.86,24.968 -85.77,63.439 -111.08,111.179 l 191.55,300.52 c 63.88,-6.85 129.98,-9.5 175.29,-10.39 L 2333.48,972.141" />
      <path
         inkscape:connector-curvature="0"
         id="path262"
         style="fill:#515254;fill-opacity:1;fill-rule:nonzero;stroke:none"
         d="m 2813.83,940.41 h -353.02 c -16.03,0 -31.84,1.449 -47.2,4.09 l 273.33,428.95 c 87.53,1.88 249.68,9.84 327.48,42 l 62.45,-102.01 -236.85,-371.698 v 0 c -8.62,-0.883 -17.35,-1.332 -26.19,-1.332" />
      <path
         inkscape:connector-curvature="0"
         id="path264"
         style="fill:#fabc60;fill-opacity:1;fill-rule:nonzero;stroke:none"
         d="m 3047.47,2834.48 c -58.03,284.61 -237.63,560.92 -237.63,560.92 0,0 129.87,-35.92 168.56,-99.47 38.68,-63.56 69.07,-461.45 69.07,-461.45" />
      <path
         inkscape:connector-curvature="0"
         id="path266"
         style="fill:#fabc60;fill-opacity:1;fill-rule:nonzero;stroke:none"
         d="m 2226.83,2834.48 c 0,0 30.39,397.89 69.07,461.45 38.69,63.55 168.55,99.47 168.55,99.47 0,0 -179.6,-276.31 -237.62,-560.92" />
      <path
         inkscape:connector-curvature="0"
         id="path268"
         style="fill:#292827;fill-opacity:1;fill-rule:nonzero;stroke:none"
         d="m 2941.55,3428.55 c -16.58,33.16 -25.79,82.9 -25.79,82.9 -35.34,55.55 -248.38,63.81 -285.52,62.63 -37.13,1.18 -257.54,-7.08 -292.89,-62.63 0,0 -9.21,-49.74 -25.79,-82.9 0,0 83.47,79.73 314.99,79.2 231.53,0.53 315,-79.2 315,-79.2" />
      <path
         inkscape:connector-curvature="0"
         id="path270"
         style="fill:#3e3d3f;fill-opacity:1;fill-rule:nonzero;stroke:none"
         d="m 2360.85,3489.26 c 0.97,4.14 1.75,7.71 2.34,10.51 25.68,26.58 156.82,46.78 259.11,46.78 2.84,0 5.21,-0.03 7.06,-0.09 h 1.75 c 1.86,0.06 4.21,0.09 7,0.09 89.65,0 224.67,-17.67 251.8,-46.69 0.6,-2.81 1.37,-6.41 2.36,-10.59 -52.15,22.58 -136.86,46.11 -263.42,46.11 h -4.57 c -126.57,0 -211.29,-23.53 -263.43,-46.12" />
      <path
         inkscape:connector-curvature="0"
         id="path272"
         style="fill:#f89c26;fill-opacity:1;fill-rule:nonzero;stroke:none"
         d="m 2396.3,691.219 c 0,0 246.83,-36.848 484.46,1.84 l 3.69,-27.629 c 0,0 -272.63,-55.258 -493.68,0 l 5.53,25.789" />
      <path
         inkscape:connector-curvature="0"
         id="path276"
         style="fill:#b96b1d;fill-opacity:1;fill-rule:nonzero;stroke:none"
         d="m 3283.52,2364.99 -0.1,0.18 c 1.09,9.6 6.38,23.47 12,36.06 l 8.96,-2.11 c 18.78,-4.41 34.67,-15.74 45.06,-31.12 l -65.92,-3.01" />
      <path
         inkscape:connector-curvature="0"
         id="path278"
         style="fill:#b2511e;fill-opacity:1;fill-rule:nonzero;stroke:none"
         d="m 3367.04,2306.73 -1.2,0.21 c 0,2.12 0.01,4.25 0.01,6.36 l 1.19,-6.57" />
    </g>
  </g>
</svg>
