<?xml version="1.0" encoding="UTF-8" standalone="no"?>
<!-- Created with Inkscape (http://www.inkscape.org/) -->

<svg
   xmlns:dc="http://purl.org/dc/elements/1.1/"
   xmlns:cc="http://creativecommons.org/ns#"
   xmlns:rdf="http://www.w3.org/1999/02/22-rdf-syntax-ns#"
   xmlns:svg="http://www.w3.org/2000/svg"
   xmlns="http://www.w3.org/2000/svg"
   xmlns:sodipodi="http://sodipodi.sourceforge.net/DTD/sodipodi-0.dtd"
   xmlns:inkscape="http://www.inkscape.org/namespaces/inkscape"
   version="1.1"
   id="svg2"
   xml:space="preserve"
   width="227.3248"
   height="406.57333"
   viewBox="0 0 227.3248 406.57334"
   sodipodi:docname="car_red.svg"
   inkscape:version="0.92.2 5c3e80d, 2017-08-06"><metadata
     id="metadata8"><rdf:RDF><cc:Work
         rdf:about=""><dc:format>image/svg+xml</dc:format><dc:type
           rdf:resource="http://purl.org/dc/dcmitype/StillImage" /><dc:title></dc:title></cc:Work></rdf:RDF></metadata><defs
     id="defs6"><clipPath
       clipPathUnits="userSpaceOnUse"
       id="clipPath24"><path
         d="m 1678.8,1958.76 c -6.13,410.72 -31.39,677.58 -20.93,803.16 6.76,81.06 1.52,286.57 -3.04,482.24 -2.65,113.62 -70.74,300.33 -174.71,346.24 -21.57,9.52 -339.37,75.83 -462.54,75.83 -116.678,0 -400.506,-65.93 -420.584,-74.79 l -2.363,-1.04 c -103.969,-45.91 -172.067,-239.59 -174.711,-353.21 -4.563,-195.68 -9.801,-394.21 -3.043,-475.27 10.465,-125.58 -14.801,-392.44 -20.934,-803.16 -1.906,-128.07 15.735,-590.56 25.375,-928.63 3.383,-118.54 94.696,-215.821 212.77,-226.778 0,0 293.785,-36.422 392.28,-36.422 98.49,0 414.29,36.422 414.29,36.422 118.08,10.957 209.39,108.238 212.77,226.778 9.64,338.07 27.28,800.56 25.37,928.63"
         id="path22"
         inkscape:connector-curvature="0" /></clipPath><clipPath
       clipPathUnits="userSpaceOnUse"
       id="clipPath188"><path
         d="m 3086.6,3468.26 c -73.61,70.22 -168.13,114.5 -269.2,126.11 -127.86,14.7 -256.98,14.7 -384.84,0 -101.07,-11.61 -195.58,-55.89 -269.2,-126.11 -93.58,-89.26 -145.99,-213.3 -144.76,-342.62 l 2.08,-217.5 32.02,-336.17 -20.01,-568.29 -10.89,-1153.43 c -0.68,-72.25 41.96,-137.898 108.24,-166.668 67.91,-29.473 140.68,-46.133 214.65,-49.152 l 236.1,-9.641 c 29.44,-1.199 58.94,-1.199 88.38,0 l 236.1,9.641 c 73.97,3.019 146.74,19.679 214.65,49.152 66.29,28.77 108.92,94.418 108.24,166.668 l -10.89,1153.43 -20,568.29 32.02,336.17 2.07,217.5 c 1.23,129.32 -51.18,253.36 -144.76,342.62"
         id="path186"
         inkscape:connector-curvature="0" /></clipPath><clipPath
       clipPathUnits="userSpaceOnUse"
       id="clipPath286"><path
         d="m 4700.83,3065.95 c -7.67,210.74 -26.83,352.51 -65.15,455.96 -38.31,103.46 -126.44,99.63 -191.58,111.12 -15.02,2.65 -40.65,8.16 -71.18,15.06 -166.23,37.57 -338.75,38.26 -505.07,1.08 -33.66,-7.53 -61.65,-13.53 -76.44,-16.14 -65.14,-11.49 -153.27,-7.66 -191.59,-111.12 -38.32,-103.45 -57.48,-245.22 -65.13,-455.96 -7.67,-210.75 -7.67,-1421.55 -3.84,-1586.31 3.84,-164.77 80.47,-624.558 111.12,-651.378 30.66,-26.821 88.13,-42.153 88.13,-42.153 h 357.66 59.99 357.66 c 0,0 57.47,15.332 88.13,42.153 30.65,26.82 107.29,486.608 111.12,651.378 3.83,164.76 3.83,1375.56 -3.83,1586.31"
         id="path284"
         inkscape:connector-curvature="0" /></clipPath></defs><sodipodi:namedview
     pagecolor="#ffffff"
     bordercolor="#666666"
     borderopacity="1"
     objecttolerance="10"
     gridtolerance="10"
     guidetolerance="10"
     inkscape:pageopacity="0"
     inkscape:pageshadow="2"
     inkscape:window-width="1920"
     inkscape:window-height="1029"
     id="namedview4"
     showgrid="false"
     fit-margin-top="10"
     fit-margin-right="10"
     fit-margin-bottom="10"
     fit-margin-left="10"
     inkscape:zoom="0.70799998"
     inkscape:cx="173.82568"
     inkscape:cy="8.0164247"
     inkscape:window-x="0"
     inkscape:window-y="27"
     inkscape:window-maximized="1"
     inkscape:current-layer="g12" /><g
     id="g10"
     inkscape:groupmode="layer"
     inkscape:label="ink_ext_XXXXXX"
     transform="matrix(1.3333333,0,0,-1.3333333,-25.100532,498.83065)"><g
       id="g12"
       transform="scale(0.1)"><g
         id="g1328"><g
           id="g18"><g
             clip-path="url(#clipPath24)"
             id="g20"><path
               inkscape:connector-curvature="0"
               id="path26"
               style="fill:#f14258;fill-opacity:1;fill-rule:nonzero;stroke:none"
               d="m 1678.8,1958.76 c -6.13,410.72 -31.39,677.58 -20.93,803.16 7.07,84.78 1.02,398.5 -3.66,593.4 -2.34,97.61 -40.44,212.17 -129.76,251.61 l -31.39,48.84 c -18.38,8.12 -60.46,13.9 -80.23,17.44 -72.55,13 -275.98,90.7 -402.23,90.7 -119.666,0 -285.791,-74.14 -352.307,-87.21 -18.316,-3.6 -59.664,-30.83 -76.738,-38.37 l -55.813,-27.9 c -89.324,-39.45 -102.855,-157.5 -105.199,-255.11 -4.68,-194.9 -10.727,-508.62 -3.664,-593.4 10.465,-125.58 -14.801,-392.44 -20.934,-803.16 -1.906,-128.07 15.735,-590.56 25.375,-928.63 3.383,-118.54 94.696,-215.821 212.77,-226.778 0,0 293.785,-36.422 392.28,-36.422 98.49,0 414.29,36.422 414.29,36.422 118.08,10.957 209.39,108.238 212.77,226.778 9.64,338.07 27.28,800.56 25.37,928.63" /><path
               inkscape:connector-curvature="0"
               id="path28"
               style="fill:#f03e50;fill-opacity:1;fill-rule:nonzero;stroke:none"
               d="m 1165.57,3413 c -32.88,4.4 -65.89,7.98 -99.01,10.74 v 32.58 l 23.21,6.93 12.22,-31.59 63.58,-16.07 V 3413" /><path
               inkscape:connector-curvature="0"
               id="path30"
               style="fill:#a184ab;fill-opacity:1;fill-rule:nonzero;stroke:none"
               d="m 1657.88,2762.07 c 2.17,26.11 3.1,73.76 3.21,132.94 0.13,-56.63 -0.73,-103.15 -3.21,-132.94" /><path
               inkscape:connector-curvature="0"
               id="path32"
               style="fill:#c82b3e;fill-opacity:1;fill-rule:nonzero;stroke:none"
               d="m 1353.67,912.48 c -15.61,0 -31.22,1.879 -46.82,6.02 -8.36,2.211 -16.74,4.422 -25.17,6.641 69.06,5.379 126.45,12.789 170.46,20.589 85,15.071 137.96,84.85 116.28,154.06 l -55.5,177.18 30.26,34.8 0.09,3.42 c 20.16,-56.59 70.42,-195.11 79.25,-195.11 0.87,0 1.34,1.34 1.34,4.23 v 1352.14 l 29.69,7.73 1.62,-20.18 7.2,-2.59 c 5.75,-132.83 13.41,-300.27 16.43,-502.65 0.1,-6.5 0.15,-13.87 0.15,-22.04 -0.01,-149.97 -15.79,-570.38 -25.02,-889.38 -20.53,-11.78 -41.05,-24.4 -61.58,-37.02 -79.57,-48.922 -159.12,-97.84 -238.68,-97.84 m 215.1,1544.37 -14.22,67.42 30.76,119.47 c 16.77,65.15 -9.7,130.78 -60.94,167.54 l 2.22,513.11 -309.69,78.24 v 2.82 c 154.26,-24.75 303.26,-67.45 435.35,-126.41 1.45,-12.19 2.32,-23.87 2.58,-34.88 2.88,-123.77 6.04,-251.49 6.26,-349.15 -0.11,-59.18 -1.04,-106.83 -3.21,-132.94 0,-0.05 0,-0.1 -0.01,-0.15 -1.76,-21.09 -2.51,-46.17 -2.51,-75.25 0,-42.14 1.57,-92.69 3.92,-151.66 l -35.42,-16.18 v 151.53 l -55.09,-213.51" /><path
               inkscape:connector-curvature="0"
               id="path34"
               style="fill:#c82731;fill-opacity:1;fill-rule:nonzero;stroke:none"
               d="M 1216.9,779.949 V 920.91 c 22.6,1.199 44.21,2.621 64.78,4.231 8.43,-2.219 16.81,-4.43 25.17,-6.641 15.6,-4.141 31.21,-6.02 46.82,-6.02 79.56,0 159.11,48.918 238.68,97.84 20.53,12.62 41.05,25.24 61.58,37.02 -0.17,-5.77 -0.34,-11.52 -0.5,-17.21 -3.38,-118.54 -94.69,-215.821 -212.77,-226.778 0,0 -10.71,-1.243 -28.81,-3.25 -40.48,-4.512 -117.88,-12.922 -194.95,-20.153" /><path
               inkscape:connector-curvature="0"
               id="path36"
               style="fill:#c82938;fill-opacity:1;fill-rule:nonzero;stroke:none"
               d="M 1652.25,3279.04 C 1520.16,3338 1371.16,3380.7 1216.9,3405.45 v 238.56 c 123.64,-20.2 249.9,-47.74 263.22,-53.61 93.9,-41.47 158.53,-197.78 172.13,-311.36 m -57.2,136.92 v 0 l -14.65,28.78 -5.23,10.25 v 0 c -9.68,18.85 -22.16,35.86 -36.86,50.53 -1.74,1.75 -3.51,3.46 -5.31,5.14 -21.04,19.47 -46.15,34.43 -73.88,43.53 l -47.83,15.7 -6.38,2.09 -27,8.8 4.18,-64.15 1.05,-16.96 211.91,-83.71" /><path
               inkscape:connector-curvature="0"
               id="path38"
               style="fill:#725982;fill-opacity:1;fill-rule:nonzero;stroke:none"
               d="m 416.867,2762.09 c -2.488,29.96 -3.344,75.9 -3.203,131.77 0.121,-58.62 1.055,-105.83 3.203,-131.77" /><path
               inkscape:connector-curvature="0"
               id="path40"
               style="fill:#c82b3e;fill-opacity:1;fill-rule:nonzero;stroke:none"
               d="m 551.117,1170.42 c -16.273,8.86 -32.113,17.94 -47.469,27.26 15.305,39.5 31.793,85.05 41.942,113.48 l 46.476,-10.01 -40.949,-130.73 m -84.676,50.93 c -2.671,1.78 -5.332,3.58 -7.968,5.38 -15.371,10.5 -30.118,21.27 -44.149,32.3 -8.683,272.48 -18.515,559.32 -18.519,677.69 0,8.17 0.047,15.54 0.14,22.04 3.004,201.12 10.598,367.77 16.332,500.2 l 14.008,5.04 1.613,20.18 38.543,-10.04 V 1221.35 m 52.7,1244.79 -52.7,204.22 v -193.87 l -3.234,39.77 -47.613,21.76 c 2.281,57.7 3.797,107.22 3.797,148.65 -0.004,29.08 -0.754,54.16 -2.512,75.25 -0.004,0.05 -0.008,0.11 -0.012,0.17 -2.148,25.94 -3.082,73.15 -3.203,131.77 0.238,95.48 3.383,219.97 6.258,343.33 0.683,29.28 5.715,63.88 14.582,99.9 1.953,1.32 3.934,2.66 5.945,3.98 25.762,16.91 54.711,30.92 86.024,41.92 59.906,21.06 125.925,31.51 191.91,38.26 60.172,6.15 121.457,9.21 183.164,9.28 v -23.48 L 595.504,3315.67 569.75,2816.93 c -47.414,-37.45 -71.27,-100.48 -55.141,-163.13 l 24.239,-94.15 -19.707,-93.51" /><path
               inkscape:connector-curvature="0"
               id="path42"
               style="fill:#c82731;fill-opacity:1;fill-rule:nonzero;stroke:none"
               d="M 901.547,774.5 C 780.73,785.172 634.09,803.352 634.09,803.352 516.016,814.309 424.703,911.59 421.32,1030.13 c -2.058,72.11 -4.476,149.91 -6.996,228.9 14.031,-11.03 28.778,-21.8 44.149,-32.3 2.636,-1.8 5.297,-3.6 7.968,-5.38 v -97.04 c 0,-2.89 0.469,-4.23 1.336,-4.23 4.465,-0.01 19.493,35.33 35.871,77.6 15.356,-9.32 31.196,-18.4 47.469,-27.26 L 531.5,1107.78 c -21.687,-69.22 31.309,-139.12 116.367,-154.05 67.879,-11.91 157.957,-24.21 253.68,-31.21 V 774.5" /><path
               inkscape:connector-curvature="0"
               id="path44"
               style="fill:#c82938;fill-opacity:1;fill-rule:nonzero;stroke:none"
               d="m 434.504,3337.09 c 17.422,70.75 49.664,146.96 92.894,199.1 20.153,24.3 42.696,43.37 67.235,54.21 l 2.363,1.04 c 14.91,6.58 175.219,44.62 304.551,63.78 v -224.69 c -61.707,-0.07 -122.992,-3.13 -183.164,-9.28 -65.985,-6.75 -132.004,-17.2 -191.91,-38.26 -31.313,-11 -60.262,-25.01 -86.024,-41.92 -2.011,-1.32 -3.992,-2.66 -5.945,-3.98 m 100.617,117.9 v 0 l -5.23,-10.25 -14.653,-28.78 211.91,83.71 1.047,16.96 4.188,64.15 -27.004,-8.8 -6.379,-2.09 -47.824,-15.7 c -27.731,-9.1 -52.848,-24.06 -73.879,-43.53 -1.742,-1.62 -3.453,-3.28 -5.137,-4.96 -14.781,-14.72 -27.32,-31.78 -37.039,-50.71" /><path
               inkscape:connector-curvature="0"
               id="path46"
               style="fill:#c82731;fill-opacity:1;fill-rule:nonzero;stroke:none"
               d="m 1066.56,768.18 v 148.531 c 34.57,0.141 67.6,0.82 99.01,1.93 V 775.332 c -36.49,-3.133 -70.92,-5.703 -99.01,-7.152" /><path
               inkscape:connector-curvature="0"
               id="path48"
               style="fill:#c82938;fill-opacity:1;fill-rule:nonzero;stroke:none"
               d="m 1165.57,3415.59 -63.58,16.07 -12.22,31.59 -23.21,-6.93 v 207.51 c 29.38,-2.46 63.38,-6.67 99.01,-11.86 v -236.38" /><path
               inkscape:connector-curvature="0"
               id="path50"
               style="fill:#f25869;fill-opacity:1;fill-rule:nonzero;stroke:none"
               d="M 578.938,2361.65 H 1487.82 V 1387.2 c 0,-27.18 -21.15,-49.67 -48.27,-51.34 l -121.78,-7.49 -93.31,764.69 -577.534,200.18 c -36.281,3.25 -64.969,32.11 -67.988,68.41" /><path
               inkscape:connector-curvature="0"
               id="path52"
               style="fill:#f25869;fill-opacity:1;fill-rule:nonzero;stroke:none"
               d="m 1482.2,3394 c -27.83,27.83 -63.29,46.78 -101.9,54.45 l -83.62,16.8 c -152.35,30.61 -331.274,30.78 -483.7,0.5 l -85.796,-17.04 c -16.086,-3.2 -31.903,-7.94 -46.711,-14.98 -73.223,-34.81 -116.032,-107.33 -114.688,-183.84 2.184,-124.37 6.008,-343.09 6.008,-350.23 0,-6.45 196.879,10.56 336.336,24.08 89.133,8.64 200.831,8.64 289.961,0 139.46,-13.52 336.34,-30.53 336.34,-24.08 0,7.14 3.82,225.86 6.01,350.23 0.95,53.96 -20.07,105.94 -58.24,144.11" /><path
               inkscape:connector-curvature="0"
               id="path54"
               style="fill:#ffffff;fill-opacity:1;fill-rule:nonzero;stroke:none"
               d="m 901.547,666.859 h 165.012 v 3091.05 H 901.547 Z" /><path
               inkscape:connector-curvature="0"
               id="path56"
               style="fill:#ffffff;fill-opacity:1;fill-rule:nonzero;stroke:none"
               d="m 1165.57,666.859 h 51.3281 v 3091.05 H 1165.57 Z" /><path
               inkscape:connector-curvature="0"
               id="path58"
               style="fill:#e1d5e9;fill-opacity:1;fill-rule:nonzero;stroke:none"
               d="m 1026.37,766.93 c -28.905,0 -74.643,3.14 -124.823,7.57 v 148.02 c 49.601,-3.629 100.713,-5.84 151.043,-5.84 4.68,0 9.34,0.011 13.97,0.031 V 768.18 c -15.6,-0.801 -29.24,-1.25 -40.19,-1.25" /><path
               inkscape:connector-curvature="0"
               id="path60"
               style="fill:#e1d5e9;fill-opacity:1;fill-rule:nonzero;stroke:none"
               d="m 1165.57,775.332 v 143.309 c 17.62,0.621 34.75,1.39 51.33,2.269 V 779.949 c -17.26,-1.609 -34.52,-3.168 -51.33,-4.617" /></g></g><path
           inkscape:connector-curvature="0"
           id="path62"
           style="fill:#292827;fill-opacity:1;fill-rule:nonzero;stroke:none"
           d="m 1343.01,3580.78 -80.24,12.38 c -126.52,19.53 -277.317,19.53 -403.848,0 l -80.231,-12.38 -11.39,-43.17 74.246,12.53 c 137.887,23.28 300.713,23.28 438.603,0 l 74.25,-12.53 -11.39,43.17" /><path
           inkscape:connector-curvature="0"
           id="path64"
           style="fill:#86857f;fill-opacity:1;fill-rule:nonzero;stroke:none"
           d="m 1383.14,3499.67 -1.05,16.96 -4.18,64.15 27,-8.8 6.38,-2.09 47.83,-15.7 c 27.73,-9.1 52.84,-24.06 73.88,-43.53 17.05,-15.9 31.29,-34.63 42.17,-55.67 l 5.23,-10.25 14.65,-28.78 -211.91,83.71" /><path
           inkscape:connector-curvature="0"
           id="path66"
           style="fill:#f9f9f9;fill-opacity:1;fill-rule:nonzero;stroke:none"
           d="m 1580.4,3444.74 c -36.21,41.02 -165.86,74.08 -165.86,74.08 l -3.25,51.07 47.83,-15.7 c 50.23,-16.53 91.88,-52.11 116.05,-99.2 l 5.23,-10.25" /><path
           inkscape:connector-curvature="0"
           id="path68"
           style="fill:#737071;fill-opacity:1;fill-rule:nonzero;stroke:none"
           d="m 1595.05,3415.96 -211.91,83.71 -1.05,16.96 47.27,-1.87 c 35.08,-10.04 122.37,-37.54 151.04,-70.02 v 0 l 14.65,-28.78 m -56.74,89.56 c -1.75,1.75 -3.53,3.46 -5.34,5.14 h 0.03 c 1.8,-1.68 3.57,-3.39 5.31,-5.14" /><path
           inkscape:connector-curvature="0"
           id="path70"
           style="fill:#d9d3dc;fill-opacity:1;fill-rule:nonzero;stroke:none"
           d="m 1580.4,3444.74 c -28.67,32.48 -115.96,59.98 -151.04,70.02 l 103.61,-4.1 c 1.81,-1.68 3.59,-3.39 5.34,-5.14 14.71,-14.75 27.13,-31.72 36.86,-50.53 l 5.23,-10.25" /><path
           inkscape:connector-curvature="0"
           id="path72"
           style="fill:#86857f;fill-opacity:1;fill-rule:nonzero;stroke:none"
           d="m 727.148,3499.67 1.047,16.96 4.188,64.15 -27.004,-8.8 -6.379,-2.09 -47.824,-15.7 c -27.731,-9.1 -52.848,-24.06 -73.879,-43.53 -17.059,-15.9 -31.289,-34.63 -42.176,-55.67 l -5.23,-10.25 -14.653,-28.78 211.91,83.71" /><path
           inkscape:connector-curvature="0"
           id="path74"
           style="fill:#f9f9f9;fill-opacity:1;fill-rule:nonzero;stroke:none"
           d="m 529.891,3444.74 c 36.207,41.02 165.867,74.08 165.867,74.08 l 3.242,51.07 -47.824,-15.7 c -50.227,-16.53 -91.879,-52.11 -116.055,-99.2 l -5.23,-10.25" /><path
           inkscape:connector-curvature="0"
           id="path76"
           style="fill:#737071;fill-opacity:1;fill-rule:nonzero;stroke:none"
           d="m 515.238,3415.96 14.653,28.78 c 28.675,32.48 115.968,59.98 151.043,70.02 l 47.261,1.87 -1.047,-16.96 -211.91,-83.71 m 56.922,89.74 c 1.684,1.68 3.395,3.34 5.137,4.96 h 0.027 c -1.75,-1.62 -3.472,-3.27 -5.164,-4.96" /><path
           inkscape:connector-curvature="0"
           id="path78"
           style="fill:#d9d3dc;fill-opacity:1;fill-rule:nonzero;stroke:none"
           d="m 529.891,3444.74 5.23,10.25 c 9.774,18.89 22.246,35.92 37.039,50.71 1.692,1.69 3.414,3.34 5.164,4.96 l 103.61,4.1 c -35.075,-10.04 -122.368,-37.54 -151.043,-70.02" /><path
           inkscape:connector-curvature="0"
           id="path80"
           style="fill:#f46d86;fill-opacity:1;fill-rule:nonzero;stroke:none"
           d="m 1818.19,2405.69 v -0.41 l -163.02,58.72 -1.62,20.18 -38.74,-10.09 3.43,42.17 58.72,26.83 8.67,0.61 43.58,2.82 c 0,0 78.7,-21.99 88.98,-140.83" /><path
           inkscape:connector-curvature="0"
           id="path82"
           style="fill:#c83f5b;fill-opacity:1;fill-rule:nonzero;stroke:none"
           d="m 1818.19,2405.69 -127.72,71.83 c 0,0 -1.61,39.75 -4.84,66.18 l -8.67,-0.61 -53.1,-24.26 53.1,24.26 8.67,0.61 43.58,2.82 c 0,0 78.7,-21.99 88.98,-140.83 v 0" /><path
           inkscape:connector-curvature="0"
           id="path84"
           style="fill:#762430;fill-opacity:1;fill-rule:nonzero;stroke:none"
           d="m 1818.19,2405.28 -155.82,56.13 -7.2,2.59 -1.62,20.18 -29.69,-7.73 v 42.38 l 53.1,24.26 8.67,0.61 c 3.23,-26.43 4.84,-66.18 4.84,-66.18 l 127.72,-71.83 v -0.41" /><path
           inkscape:connector-curvature="0"
           id="path86"
           style="fill:#f46d86;fill-opacity:1;fill-rule:nonzero;stroke:none"
           d="m 263.254,2405.69 v -0.41 l 163.031,58.72 1.613,20.18 38.739,-10.09 -3.43,42.17 -58.715,26.83 -8.676,0.61 -43.582,2.82 c 0,0 -78.687,-21.99 -88.98,-140.83" /><path
           inkscape:connector-curvature="0"
           id="path88"
           style="fill:#c83f5b;fill-opacity:1;fill-rule:nonzero;stroke:none"
           d="m 263.254,2405.28 v 0.41 c 10.293,118.84 88.98,140.83 88.98,140.83 l 43.582,-2.82 8.676,-0.61 58.715,-26.83 3.234,-39.77 -3.234,39.77 -58.715,26.83 -8.676,0.61 c -3.23,-26.43 -4.843,-66.18 -4.843,-66.18 l -127.719,-71.83 v -0.41" /><path
           inkscape:connector-curvature="0"
           id="path90"
           style="fill:#762430;fill-opacity:1;fill-rule:nonzero;stroke:none"
           d="m 263.254,2405.28 v 0.41 l 127.719,71.83 c 0,0 1.613,39.75 4.843,66.18 l 8.676,-0.61 58.715,-26.83 3.234,-39.77 v -2.35 l -38.543,10.04 -1.613,-20.18 -14.008,-5.04 -149.023,-53.68" /><path
           inkscape:connector-curvature="0"
           id="path92"
           style="fill:#292827;fill-opacity:1;fill-rule:nonzero;stroke:none"
           d="m 1036.24,2884.01 c -181.724,0 -312.427,-17.33 -401.482,-36.53 C 546.93,2828.54 492.211,2740.81 514.609,2653.8 l 70.047,-272.09 c 175.188,32.22 758.014,32.22 933.194,0 l 67.46,262.03 c 22.4,87.03 -32.35,174.91 -120.24,193.68 -106.48,22.74 -276.47,46.59 -428.83,46.59" /><path
           inkscape:connector-curvature="0"
           id="path94"
           style="fill:#3e3d3f;fill-opacity:1;fill-rule:nonzero;stroke:none"
           d="m 1494.66,2417.49 c -86.33,13.4 -181.77,18.01 -258.79,19.05 l 166.66,261.62 c 53.1,-4.51 105.43,-10.66 156.28,-18.42 -0.21,-9.42 -1.47,-18.73 -3.87,-28.15 l -60.28,-234.1 m -886.808,0 -50.754,197.26 c 74.961,28.84 154.121,48.36 234.011,62.03 L 627.734,2420.43 v 0 c -6.699,-0.95 -13.293,-1.88 -19.882,-2.94 m 176.64,16.64 175.145,263.95 c 29.961,2.61 60.263,4.68 90.813,6.21 L 865.594,2436.54 v 0 c -25.426,-0.42 -52.742,-1.15 -81.102,-2.41 m 774.388,249.89 c -0.02,22.9 -6.49,45.32 -18.91,65.41 -16.26,26.31 -40.95,45.34 -70.17,54.33 l 0.06,0.09 c -2.34,0.67 -4.73,1.29 -7.16,1.88 v 0 c 2.43,-0.59 4.82,-1.21 7.16,-1.88 29.19,-9.1 53.89,-28.15 70.11,-54.42 12.42,-20.09 18.89,-42.51 18.91,-65.41 m -1017.911,9.37 c -0.016,23.05 6.367,45.72 18.851,65.88 18.317,29.72 47.301,50.13 81.516,57.56 33.387,7.19 68.84,13.31 106.262,18.34 -37.422,-5.04 -72.871,-11.15 -106.262,-18.34 -34.215,-7.43 -63.199,-27.84 -81.516,-57.56 -12.484,-20.16 -18.867,-42.83 -18.851,-65.88 m 917.301,113.35 v 0 c -78.05,16.73 -188.33,35.94 -307.37,43.05 l -0.82,-1.19 c -29.4,1.95 -58.95,3.28 -88.05,3.79 l 0.01,0.01 c -4.77,0.21 -19.85,0.21 -25.26,0.21 v 0 c 5.41,0 20.49,0 25.26,-0.21 26.26,-0.1 63.22,-1.15 88.86,-2.61 119.04,-7.11 229.32,-26.32 307.37,-43.05" /><path
           inkscape:connector-curvature="0"
           id="path96"
           style="fill:#3e3d3f;fill-opacity:1;fill-rule:nonzero;stroke:none"
           d="m 747.598,2835.17 c 80.504,10.83 170.097,16.65 267.852,17.37 -39.555,-0.3 -77.778,-1.42 -114.481,-3.38 -54.203,-2.88 -105.403,-7.54 -153.371,-13.99" /><path
           inkscape:connector-curvature="0"
           id="path98"
           style="fill:#515254;fill-opacity:1;fill-rule:nonzero;stroke:none"
           d="m 557.098,2614.75 v 0 l -12.035,46.89 c -2.731,10.53 -4.086,21.18 -4.094,31.75 -0.016,23.05 6.367,45.72 18.851,65.88 18.317,29.72 47.301,50.13 81.516,57.56 33.391,7.19 68.84,13.3 106.262,18.34 47.968,6.45 99.168,11.11 153.371,13.99 36.703,1.96 74.926,3.08 114.481,3.38 v 0 c -39.555,-0.3 -77.778,-1.42 -114.481,-3.38 l -109.86,-172.38 c -79.89,-13.67 -159.05,-33.19 -234.011,-62.03" /><path
           inkscape:connector-curvature="0"
           id="path100"
           style="fill:#515254;fill-opacity:1;fill-rule:nonzero;stroke:none"
           d="m 1558.81,2679.74 c -50.85,7.76 -103.18,13.91 -156.28,18.42 l 67.27,105.6 c 29.22,-8.99 53.91,-28.02 70.17,-54.33 12.42,-20.09 18.89,-42.51 18.91,-65.41 0,-1.43 -0.02,-2.85 -0.07,-4.28 v 0 m -599.173,18.34 102.393,154.31 c 29.1,-0.51 58.65,-1.84 88.05,-3.79 l -99.63,-144.31 c -30.55,-1.53 -60.852,-3.6 -90.813,-6.21" /><path
           inkscape:connector-curvature="0"
           id="path102"
           style="fill:#3e3d3f;fill-opacity:1;fill-rule:nonzero;stroke:none"
           d="m 1462.7,2805.73 c -1.36,0.33 -2.75,0.64 -4.14,0.95 1.39,-0.3 2.77,-0.62 4.14,-0.95 m -4.14,0.95 c -0.1,0.02 -0.19,0.04 -0.29,0.06 0.1,-0.02 0.19,-0.04 0.29,-0.06" /><path
           inkscape:connector-curvature="0"
           id="path104"
           style="fill:#3e3d3f;fill-opacity:1;fill-rule:nonzero;stroke:none"
           d="m 1015.49,2852.54 c 1.43,0.01 2.86,0.02 4.29,0.02 -1.43,0 -2.86,-0.01 -4.29,-0.02" /><path
           inkscape:connector-curvature="0"
           id="path106"
           style="fill:#3e3d3f;fill-opacity:1;fill-rule:nonzero;stroke:none"
           d="m 1019.9,2852.57 c 0.31,0 0.61,0 0.92,0 -0.31,0 -0.61,0 -0.92,0" /><path
           inkscape:connector-curvature="0"
           id="path108"
           style="fill:#3e3d3f;fill-opacity:1;fill-rule:nonzero;stroke:none"
           d="m 1020.98,2852.57 c 0.34,0 0.68,0.01 1.02,0.01 -0.34,0 -0.68,-0.01 -1.02,-0.01" /><path
           inkscape:connector-curvature="0"
           id="path110"
           style="fill:#3e3d3f;fill-opacity:1;fill-rule:nonzero;stroke:none"
           d="m 1022.02,2852.58 c 0.69,0 1.38,0 2.08,0.01 -0.7,-0.01 -1.39,-0.01 -2.08,-0.01" /><path
           inkscape:connector-curvature="0"
           id="path112"
           style="fill:#3e3d3f;fill-opacity:1;fill-rule:nonzero;stroke:none"
           d="m 1024.35,2852.59 c 0.26,0 0.52,0 0.78,0 -0.26,0 -0.52,0 -0.78,0" /><path
           inkscape:connector-curvature="0"
           id="path114"
           style="fill:#3e3d3f;fill-opacity:1;fill-rule:nonzero;stroke:none"
           d="m 1025.41,2852.59 c 0.3,0 0.59,0 0.88,0.01 -0.29,-0.01 -0.58,-0.01 -0.88,-0.01" /><path
           inkscape:connector-curvature="0"
           id="path116"
           style="fill:#3e3d3f;fill-opacity:1;fill-rule:nonzero;stroke:none"
           d="m 1026.41,2852.6 c 0.36,0 0.71,0 1.07,0 -0.35,0 -0.71,0 -1.07,0" /><path
           inkscape:connector-curvature="0"
           id="path118"
           style="fill:#3e3d3f;fill-opacity:1;fill-rule:nonzero;stroke:none"
           d="m 1027.49,2852.6 c 0.34,0 0.65,0 0.98,0 -0.33,0 -0.65,0 -0.98,0" /><path
           inkscape:connector-curvature="0"
           id="path120"
           style="fill:#3e3d3f;fill-opacity:1;fill-rule:nonzero;stroke:none"
           d="m 1028.79,2852.6 c 0.24,0 0.46,0 0.7,0 -0.23,0 -0.47,0 -0.7,0" /><path
           inkscape:connector-curvature="0"
           id="path122"
           style="fill:#3e3d3f;fill-opacity:1;fill-rule:nonzero;stroke:none"
           d="m 1029.81,2852.61 c 0.26,0 0.51,0 0.77,0 -0.25,0 -0.51,0 -0.77,0" /><path
           inkscape:connector-curvature="0"
           id="path124"
           style="fill:#3e3d3f;fill-opacity:1;fill-rule:nonzero;stroke:none"
           d="m 1030.85,2852.61 c 0.67,0 1.33,0 2,0 -0.67,0 -1.34,0 -2,0" /><path
           inkscape:connector-curvature="0"
           id="path126"
           style="fill:#3e3d3f;fill-opacity:1;fill-rule:nonzero;stroke:none"
           d="m 1033.2,2852.61 c 0.24,0 0.46,0 0.7,0 -0.23,0 -0.47,0 -0.7,0" /><path
           inkscape:connector-curvature="0"
           id="path128"
           style="fill:#3e3d3f;fill-opacity:1;fill-rule:nonzero;stroke:none"
           d="m 1034.24,2852.61 c 0.23,0 0.47,0 0.7,0 -0.23,0 -0.46,0 -0.7,0" /><path
           inkscape:connector-curvature="0"
           id="path130"
           style="fill:#3e3d3f;fill-opacity:1;fill-rule:nonzero;stroke:none"
           d="m 1035.26,2852.61 c 0.34,0 0.68,0 1.01,0 -0.33,0 -0.67,0 -1.01,0 m 1.52,0 c -0.18,0 -0.35,0 -0.51,0 0.17,0 0.34,0 0.51,0" /><path
           inkscape:connector-curvature="0"
           id="path132"
           style="fill:#515254;fill-opacity:1;fill-rule:nonzero;stroke:none"
           d="m 627.734,2420.43 163.375,256.35 c 30.86,5.28 61.817,9.69 92.696,13.42 24.972,3.03 50.261,5.65 75.832,7.88 L 784.492,2434.13 v 0 c -50.961,-2.4 -105.062,-6.59 -156.758,-13.7 m 434.296,431.96 c -8.47,0.14 -16.88,0.22 -25.25,0.22 5.41,0 20.49,0 25.26,-0.21 l -0.01,-0.01 m -46.58,0.15 c 0.01,0 0.03,0 0.04,0 -0.01,0 -0.03,0 -0.04,0 m 4.33,0.02 c 0.04,0.01 0.08,0.01 0.12,0.01 -0.04,0 -0.08,0 -0.12,-0.01 m 1.04,0.01 c 0.05,0 0.11,0 0.16,0 -0.06,0 -0.1,0 -0.16,0 m 1.18,0.01 c 0.01,0 0.01,0 0.02,0 H 1022 m 2.1,0.01 c 0.09,0 0.17,0 0.25,0 -0.08,0 -0.17,0 -0.25,0 m 1.03,0 c 0.09,0 0.19,0 0.28,0 -0.09,0 -0.19,0 -0.28,0 m 1.16,0.01 c 0.04,0 0.08,0 0.12,0 -0.03,0 -0.08,0 -0.12,0 m 1.19,0 c 0.01,0 0.01,0 0.01,0 h -0.01 m 0.99,0 c 0.11,0 0.21,0 0.32,0 -0.1,0 -0.22,0 -0.32,0 m 1.02,0 c 0.11,0 0.21,0 0.32,0.01 -0.1,-0.01 -0.22,-0.01 -0.32,-0.01 m 1.09,0.01 c 0.09,0 0.18,0 0.27,0 -0.09,0 -0.18,0 -0.27,0 m 2.27,0 c 0.12,0 0.24,0 0.35,0 -0.11,0 -0.23,0 -0.35,0 m 1.05,0 c 0.11,0 0.23,0 0.34,0 -0.11,0 -0.23,0 -0.34,0 m 1.04,0 c 0.11,0 0.22,0 0.32,0 -0.11,0 -0.21,0 -0.32,0" /><path
           inkscape:connector-curvature="0"
           id="path134"
           style="fill:#636567;fill-opacity:1;fill-rule:nonzero;stroke:none"
           d="m 791.109,2676.78 109.86,172.38 c 36.703,1.96 74.926,3.08 114.481,3.38 0.01,0 0.03,0 0.04,0 1.43,0.01 2.86,0.02 4.29,0.02 0.04,0.01 0.08,0.01 0.12,0.01 0.31,0 0.61,0 0.92,0 0.06,0 0.1,0 0.16,0 0.34,0 0.68,0.01 1.02,0.01 h 0.02 c 0.69,0 1.38,0 2.08,0.01 0.08,0 0.17,0 0.25,0 0.26,0 0.52,0 0.78,0 0.09,0 0.19,0 0.28,0 0.3,0 0.59,0 0.88,0.01 0.04,0 0.09,0 0.12,0 0.36,0 0.72,0 1.07,0 h 0.01 c 0.33,0 0.65,0 0.98,0 0.1,0 0.22,0 0.32,0 0.23,0 0.47,0 0.7,0 0.1,0 0.22,0 0.32,0.01 0.26,0 0.52,0 0.77,0 0.09,0 0.18,0 0.27,0 0.66,0 1.33,0 2,0 0.12,0 0.24,0 0.35,0 0.23,0 0.47,0 0.7,0 0.11,0 0.23,0 0.34,0 0.24,0 0.47,0 0.7,0 0.11,0 0.21,0 0.32,0 0.34,0 0.68,0 1.01,0 0.16,0 0.33,0 0.51,0 8.37,0 16.78,-0.08 25.25,-0.22 L 959.637,2698.08 c -25.571,-2.23 -50.86,-4.85 -75.832,-7.88 -30.879,-3.73 -61.836,-8.14 -92.696,-13.42" /><path
           inkscape:connector-curvature="0"
           id="path136"
           style="fill:#515254;fill-opacity:1;fill-rule:nonzero;stroke:none"
           d="m 1235.87,2436.54 v 0 c -14.55,0.21 -28.36,0.32 -41.33,0.32 H 907.98 c -13.292,0 -27.527,-0.11 -42.386,-0.32 l 184.856,267.75 c 42.97,2.14 86.4,3.21 129.92,3.21 74.37,0 149.01,-3.12 222.16,-9.34 l -166.66,-261.62 m 233.93,367.22 c -2.33,0.72 -4.7,1.38 -7.1,1.97 2.43,-0.59 4.82,-1.21 7.16,-1.88 l -0.06,-0.09 m -11.53,2.98 c -74.18,15.89 -189.97,33.98 -308.19,41.86 l 0.82,1.19 c 119.04,-7.11 229.32,-26.32 307.37,-43.05" /><path
           inkscape:connector-curvature="0"
           id="path138"
           style="fill:#636567;fill-opacity:1;fill-rule:nonzero;stroke:none"
           d="m 1402.53,2698.16 c -73.15,6.22 -147.79,9.34 -222.16,9.34 -43.52,0 -86.95,-1.07 -129.92,-3.21 l 99.63,144.31 c 118.22,-7.88 234.01,-25.97 308.19,-41.86 0.1,-0.02 0.19,-0.04 0.29,-0.06 1.39,-0.31 2.78,-0.62 4.14,-0.95 2.4,-0.59 4.77,-1.25 7.1,-1.97 l -67.27,-105.6" /><path
           inkscape:connector-curvature="0"
           id="path140"
           style="fill:#292827;fill-opacity:1;fill-rule:nonzero;stroke:none"
           d="m 1052.59,916.68 c 175.87,0 313.37,13.781 399.55,29.05 85,15.071 137.96,84.85 116.28,154.06 l -67.79,216.41 c -169.54,-25.63 -734.302,-25.63 -903.849,0 L 531.5,1107.78 c -21.687,-69.22 31.309,-139.12 116.367,-154.05 103.051,-18.082 257.266,-37.05 404.723,-37.05" /><path
           inkscape:connector-curvature="0"
           id="path142"
           style="fill:#3e3d3f;fill-opacity:1;fill-rule:nonzero;stroke:none"
           d="m 1237.37,953.852 206.21,323.608 c -87,-7.6 -228.99,-12.21 -375.06,-12.63 L 861.566,957.488 v 0 c -26.328,2.352 -51.796,5.141 -76.086,8.133 l 190.805,299.539 c -52.762,0.31 -103.055,1.38 -149.496,2.88 L 647.324,986.48 v 0 c -34.031,7.489 -61.855,25.8 -77.156,50.74 -8.137,13.47 -16.16,34.88 -8.027,60.99 l 57.254,182.67 c 50.082,-5.67 122.097,-10.06 207.394,-12.84 46.441,-1.5 96.734,-2.57 149.496,-2.88 20.117,-0.22 40.665,-0.33 61.425,-0.33 h 30.81 c 146.07,0.42 288.06,5.03 375.06,12.63 12.42,1.07 23.97,2.25 34.46,3.42 l 59.71,-190.69 c 8.14,-26.01 0.22,-47.42 -7.91,-60.79 -16.16,-26.54 -46.55,-45.478 -83.26,-52.009 -62.5,-11.129 -132.48,-19.051 -209.21,-23.539" /><path
           inkscape:connector-curvature="0"
           id="path144"
           style="fill:#515254;fill-opacity:1;fill-rule:nonzero;stroke:none"
           d="m 785.48,965.621 v 0 h -0.109 c -49.867,6.211 -94.598,13.27 -131.949,19.688 -2.031,0.332 -4.067,0.75 -6.098,1.171 l 179.465,281.56 c 46.441,-1.5 96.734,-2.57 149.496,-2.88 L 785.48,965.621" /><path
           inkscape:connector-curvature="0"
           id="path146"
           style="fill:#515254;fill-opacity:1;fill-rule:nonzero;stroke:none"
           d="m 1052.57,948.82 c -61.75,0 -133.968,3.43 -191.004,8.668 l 206.954,307.342 c 146.07,0.42 288.06,5.03 375.06,12.63 L 1237.37,953.852 v 0 c -54.58,-3.43 -123.59,-5.032 -184.8,-5.032" /><path
           inkscape:connector-curvature="0"
           id="path148"
           style="fill:#292827;fill-opacity:1;fill-rule:nonzero;stroke:none"
           d="m 1540.15,2345.95 83.71,324.41 V 1124.31 c 0,-39.83 -88.95,214.52 -88.95,214.52 l 5.24,1007.12" /><path
           inkscape:connector-curvature="0"
           id="path150"
           style="fill:#3e3d3f;fill-opacity:1;fill-rule:nonzero;stroke:none"
           d="m 1592.47,1271.37 c -8.78,23.89 -17.74,48.82 -26.13,72.72 l 5.18,997.8 20.95,81.18 v -1151.7" /><path
           inkscape:connector-curvature="0"
           id="path152"
           style="fill:#292827;fill-opacity:1;fill-rule:nonzero;stroke:none"
           d="m 1550.61,1847.14 62.79,-62.78 -8.72,90.69 -45.35,29.65 -8.72,-57.56" /><path
           inkscape:connector-curvature="0"
           id="path154"
           style="fill:#292827;fill-opacity:1;fill-rule:nonzero;stroke:none"
           d="m 550.156,2345.95 -83.715,324.41 V 1124.31 c 0,-39.83 88.95,214.52 88.95,214.52 l -5.235,1007.12" /><path
           inkscape:connector-curvature="0"
           id="path156"
           style="fill:#3e3d3f;fill-opacity:1;fill-rule:nonzero;stroke:none"
           d="m 497.832,1271.37 v 1151.7 l 20.949,-81.18 5.18,-997.8 c -8.391,-23.9 -17.34,-48.83 -26.129,-72.72" /><path
           inkscape:connector-curvature="0"
           id="path158"
           style="fill:#292827;fill-opacity:1;fill-rule:nonzero;stroke:none"
           d="m 539.691,1847.14 -62.789,-62.78 8.723,90.69 45.348,29.65 8.718,-57.56" /><path
           inkscape:connector-curvature="0"
           id="path160"
           style="fill:#c53b5a;fill-opacity:1;fill-rule:nonzero;stroke:none"
           d="m 1476.08,850.941 36.11,8.571 c 9,2.097 17.37,6.386 24.38,12.558 l 18.84,16.75 c 12.13,10.672 18.41,25.852 17.89,41.34 -0.1,7.629 -1.88,15.27 -5.44,22.391 l -4.81,9.73 -101.2,-59.34 -5.75,-12.972 -4.29,-9.52 c -7.23,-16.117 7.11,-33.488 24.27,-29.508" /><path
           inkscape:connector-curvature="0"
           id="path162"
           style="fill:#f0365b;fill-opacity:1;fill-rule:nonzero;stroke:none"
           d="m 1456.1,889.969 c 3.03,-10.047 13.49,-17.367 25.22,-14.547 l 36.1,8.48 c 9,2.098 17.37,6.489 24.38,12.657 l 18.84,16.64 c 5.44,4.821 9.73,10.571 12.66,16.961 -0.1,7.629 -1.88,15.27 -5.44,22.391 l -4.81,9.73 -101.2,-59.34 -5.75,-12.972" /><path
           inkscape:connector-curvature="0"
           id="path164"
           style="fill:#c53b5a;fill-opacity:1;fill-rule:nonzero;stroke:none"
           d="m 587.234,850.941 -36.101,8.571 c -9,2.097 -17.367,6.386 -24.379,12.558 l -18.84,16.75 c -12.137,10.672 -18.418,25.852 -17.894,41.34 0.109,7.629 1.882,15.27 5.445,22.391 l 4.812,9.73 101.192,-59.34 5.758,-12.972 4.289,-9.52 c 7.218,-16.117 -7.118,-33.488 -24.282,-29.508" /><path
           inkscape:connector-curvature="0"
           id="path166"
           style="fill:#f0365b;fill-opacity:1;fill-rule:nonzero;stroke:none"
           d="m 607.227,889.969 c -3.039,-10.047 -13.5,-17.367 -25.219,-14.547 l -36.106,8.48 c -9,2.098 -17.371,6.489 -24.382,12.657 l -18.832,16.64 c -5.446,4.821 -9.739,10.571 -12.668,16.961 0.109,7.629 1.882,15.27 5.445,22.391 l 4.812,9.73 101.192,-59.34 5.758,-12.972" /></g></g></g></svg>