<?xml version="1.0" encoding="iso-8859-1"?>
<!-- Generator: Adobe Illustrator 19.0.0, SVG Export Plug-In . SVG Version: 6.00 Build 0)  -->
<svg version="1.1" id="Capa_1" xmlns="http://www.w3.org/2000/svg" xmlns:xlink="http://www.w3.org/1999/xlink" x="0px" y="0px"
	 viewBox="0 0 460 460" style="enable-background:new 0 0 460 460;" xml:space="preserve">
<path style="fill:#FBCF4C;" d="M78.8,182.4c0-15.2,26.4-48,27.2-49.6l4-44h47.2l4,44c0,0,27.2,34.4,27.2,49.6v28L78.8,260V182.4z"/>
<polygon style="fill:#F4A23F;" points="209.2,8 248.4,7.2 248.4,224 210,224.8 "/>
<polygon style="fill:#E28539;" points="229.2,8 248.4,7.2 248.4,224 229.2,224.8 "/>
<path style="fill:#FBCF4C;" d="M271.6,210.4v-28c0-15.2,26.4-48,27.2-49.6l4-44H350l4,44c0,0,27.2,34.4,27.2,49.6V260L271.6,210.4z"
	/>
<path style="fill:#EDB248;" d="M354,132.8l-4-44h-24l4,44c0,0,27.2,34.4,27.2,49.6v67.2l24,10.4v-77.6
	C381.2,167.2,354,132.8,354,132.8z"/>
<polygon style="fill:#A3CB6F;" points="302.8,88 306,48 325.2,48 326.8,48 327.6,48 346.8,48 350,88 "/>
<polygon style="fill:#92B762;" points="346.8,48 327.6,48 326.8,48 325.2,48 323.6,48 326.8,88 350,88 "/>
<path style="fill:#EDB248;" d="M158.8,132.8l-4-44h-24l4,44c0,0,27.2,34.4,27.2,49.6v67.2l24,10.4v-77.6
	C186,167.2,158.8,132.8,158.8,132.8z"/>
<g>
	<polygon style="fill:#A3CB6F;" points="297.2,48 297.2,29.6 355.6,29.6 355.6,48 	"/>
	<polygon style="fill:#A3CB6F;" points="105.2,48 104.4,40 104.4,29.6 162.8,29.6 162.8,48 	"/>
</g>
<path style="fill:#F4A23F;" d="M67.6,310.4v-49.6h8L210,200v16c0,4,3.2,7.2,8,8h24c4,0,7.2-3.2,8-8v-16l133.6,60.8h8.8v49.6H67.6z"
	/>
<polygon style="fill:#E28539;" points="390.8,260 382,260.8 355.6,253.6 355.6,304 390.8,310.4 "/>
<polygon style="fill:#F4A23F;" points="67.6,375.2 390.8,375.2 390.8,451.2 67.6,451.2 "/>
<polygon style="fill:#A3CB6F;" points="110,88 113.2,48 154,48 157.2,88 "/>
<rect x="67.6" y="310.4" style="fill:#F4A23F;" width="323.2" height="64.8"/>
<polygon style="fill:#92B762;" points="152.4,48 132.4,48 131.6,48 130.8,48 128.4,48 131.6,88 155.6,88 "/>
<g>
	<polygon style="fill:#E28539;" points="355.6,375.2 390.8,375.2 390.8,451.2 355.6,451.2 	"/>
	<rect x="355.6" y="310.4" style="fill:#E28539;" width="35.2" height="64.8"/>
</g>
<path style="fill:#4A2328;" d="M389.2,254.4v-72c0-16-20.8-44-28-52.8l-5.6-76c4.8-3.2,8-8,8-13.6v-2.4c0-8-6.4-15.2-14.4-16l0,0
	h-45.6c-8,0-15.2,7.2-14.4,15.2c0,0,0,0,0,0.8v3.2c0,5.6,3.2,11.2,8,14.4l-2.4,33.6v0.8l0,0l-3.2,40.8c-7.2,8.8-28,36.8-28,52.8v16
	l-7.2-3.2V16c0-8.8-7.2-15.2-16-16h-24c-8.8,0-15.2,7.2-16,16v179.2l-4.8,2.4v-15.2c0-16-20.8-44-28-52.8L165.2,88l0,0v-0.8
	l-2.4-32.8c4.8-3.2,8-8,8-14.4v-2.4c0.8-8-5.6-15.2-14.4-16l0,0h-44.8c-8,0-15.2,7.2-14.4,15.2c0,0,0,0,0,0.8v3.2
	c0,5.6,3.2,11.2,8,13.6l-6.4,75.2c-7.2,8.8-27.2,36.8-27.2,52.8v71.2c-6.4,2.4-11.2,8-11.2,15.2V444c0,8.8,7.2,16,16,16h307.2
	c8.8,0,16-7.2,16-16V268.8C398.8,262.4,394.8,256.8,389.2,254.4z M305.2,37.6h42.4V40h-42.4V37.6z M341.2,80h-29.6l2.4-24h26.4
	L341.2,80z M279.6,182.4c0-8.8,15.2-31.2,25.6-44.8c0.8-1.6,1.6-2.4,1.6-4l3.2-36.8h32.8l3.2,37.6c0,1.6,0.8,3.2,1.6,4
	c10.4,12.8,25.6,36,25.6,44.8V248l-93.6-42.4V182.4z M240.4,16v200.8h-23.2V200V16L240.4,16z M112.4,37.6h42.4V40h-42.4L112.4,37.6z
	 M148.4,80H118l2.4-24h26.4L148.4,80z M86.8,182.4c0-8.8,15.2-31.2,25.6-44.8c0.8-1.6,1.6-2.4,1.6-4l3.2-36.8H150l3.2,36.8
	c0,1.6,0.8,3.2,1.6,4c10.4,12.8,25.6,36,25.6,44.8v22.4l-93.6,42.4L86.8,182.4L86.8,182.4z M75.6,268.8c0.8,0,2.4,0,3.2-0.8L202,212
	v4c0,8.8,7.2,15.2,16,16h24c8.8,0,15.2-7.2,16-16v-4l123.2,56c0.8,0,1.6,0,3.2,0v34.4H75.6V268.8z M382.8,318.4v48.8H75.6v-48.8
	H382.8z M75.6,443.2v-60h307.2v60H75.6z"/>
<g>
</g>
<g>
</g>
<g>
</g>
<g>
</g>
<g>
</g>
<g>
</g>
<g>
</g>
<g>
</g>
<g>
</g>
<g>
</g>
<g>
</g>
<g>
</g>
<g>
</g>
<g>
</g>
<g>
</g>
</svg>
